%TF.GenerationSoftware,KiCad,Pcbnew,8.0.5-8.0.5-0~ubuntu24.04.1*%
%TF.CreationDate,2024-09-18T14:46:19+03:00*%
%TF.ProjectId,PMOD1,504d4f44-312e-46b6-9963-61645f706362,rev?*%
%TF.SameCoordinates,Original*%
%TF.FileFunction,Soldermask,Top*%
%TF.FilePolarity,Negative*%
%FSLAX46Y46*%
G04 Gerber Fmt 4.6, Leading zero omitted, Abs format (unit mm)*
G04 Created by KiCad (PCBNEW 8.0.5-8.0.5-0~ubuntu24.04.1) date 2024-09-18 14:46:19*
%MOMM*%
%LPD*%
G01*
G04 APERTURE LIST*
G04 Aperture macros list*
%AMRoundRect*
0 Rectangle with rounded corners*
0 $1 Rounding radius*
0 $2 $3 $4 $5 $6 $7 $8 $9 X,Y pos of 4 corners*
0 Add a 4 corners polygon primitive as box body*
4,1,4,$2,$3,$4,$5,$6,$7,$8,$9,$2,$3,0*
0 Add four circle primitives for the rounded corners*
1,1,$1+$1,$2,$3*
1,1,$1+$1,$4,$5*
1,1,$1+$1,$6,$7*
1,1,$1+$1,$8,$9*
0 Add four rect primitives between the rounded corners*
20,1,$1+$1,$2,$3,$4,$5,0*
20,1,$1+$1,$4,$5,$6,$7,0*
20,1,$1+$1,$6,$7,$8,$9,0*
20,1,$1+$1,$8,$9,$2,$3,0*%
%AMOutline5P*
0 Free polygon, 5 corners , with rotation*
0 The origin of the aperture is its center*
0 number of corners: always 5*
0 $1 to $10 corner X, Y*
0 $11 Rotation angle, in degrees counterclockwise*
0 create outline with 5 corners*
4,1,5,$1,$2,$3,$4,$5,$6,$7,$8,$9,$10,$1,$2,$11*%
%AMOutline6P*
0 Free polygon, 6 corners , with rotation*
0 The origin of the aperture is its center*
0 number of corners: always 6*
0 $1 to $12 corner X, Y*
0 $13 Rotation angle, in degrees counterclockwise*
0 create outline with 6 corners*
4,1,6,$1,$2,$3,$4,$5,$6,$7,$8,$9,$10,$11,$12,$1,$2,$13*%
%AMOutline7P*
0 Free polygon, 7 corners , with rotation*
0 The origin of the aperture is its center*
0 number of corners: always 7*
0 $1 to $14 corner X, Y*
0 $15 Rotation angle, in degrees counterclockwise*
0 create outline with 7 corners*
4,1,7,$1,$2,$3,$4,$5,$6,$7,$8,$9,$10,$11,$12,$13,$14,$1,$2,$15*%
%AMOutline8P*
0 Free polygon, 8 corners , with rotation*
0 The origin of the aperture is its center*
0 number of corners: always 8*
0 $1 to $16 corner X, Y*
0 $17 Rotation angle, in degrees counterclockwise*
0 create outline with 8 corners*
4,1,8,$1,$2,$3,$4,$5,$6,$7,$8,$9,$10,$11,$12,$13,$14,$15,$16,$1,$2,$17*%
%AMFreePoly0*
4,1,13,0.835355,0.835355,0.850000,0.800000,0.850000,-0.800000,0.835355,-0.835355,0.800000,-0.850000,-0.800000,-0.850000,-0.835355,-0.835355,-0.850000,-0.800000,-0.850000,0.800000,-0.835355,0.835355,-0.800000,0.850000,0.800000,0.850000,0.835355,0.835355,0.835355,0.835355,$1*%
%AMFreePoly1*
4,1,17,0.366726,0.835355,0.835355,0.366726,0.850000,0.331371,0.850000,-0.331371,0.835355,-0.366726,0.366726,-0.835355,0.331371,-0.850000,-0.331371,-0.850000,-0.366726,-0.835355,-0.835355,-0.366726,-0.850000,-0.331371,-0.850000,0.331371,-0.835355,0.366726,-0.366726,0.835355,-0.331371,0.850000,0.331371,0.850000,0.366726,0.835355,0.366726,0.835355,$1*%
%AMFreePoly2*
4,1,19,0.499999,-0.750000,0.000000,-0.750000,0.000000,-0.744912,-0.071157,-0.744911,-0.207708,-0.704816,-0.327430,-0.627875,-0.420627,-0.520320,-0.479746,-0.390866,-0.500000,-0.250000,-0.500000,0.250000,-0.479746,0.390866,-0.420627,0.520320,-0.327430,0.627875,-0.207708,0.704816,-0.071157,0.744911,0.000000,0.744912,0.000000,0.750000,0.499999,0.750000,0.499999,-0.750000,0.499999,-0.750000,
$1*%
%AMFreePoly3*
4,1,19,0.000000,0.744912,0.071157,0.744911,0.207708,0.704816,0.327430,0.627875,0.420627,0.520320,0.479746,0.390866,0.500000,0.250000,0.500000,-0.250000,0.479746,-0.390866,0.420627,-0.520320,0.327430,-0.627875,0.207708,-0.704816,0.071157,-0.744911,0.000000,-0.744912,0.000000,-0.750000,-0.499999,-0.750000,-0.499999,0.750000,0.000000,0.750000,0.000000,0.744912,0.000000,0.744912,
$1*%
G04 Aperture macros list end*
%ADD10C,0.010000*%
%ADD11R,0.350000X0.220000*%
%ADD12R,0.350000X0.600000*%
%ADD13R,0.250000X0.750000*%
%ADD14R,1.050000X0.500000*%
%ADD15R,0.350000X0.500000*%
%ADD16R,0.700000X0.400000*%
%ADD17R,0.488000X0.575000*%
%ADD18RoundRect,0.135000X0.185000X-0.135000X0.185000X0.135000X-0.185000X0.135000X-0.185000X-0.135000X0*%
%ADD19C,1.000000*%
%ADD20RoundRect,0.140000X-0.140000X-0.170000X0.140000X-0.170000X0.140000X0.170000X-0.140000X0.170000X0*%
%ADD21Outline5P,-0.150000X0.015000X-0.015000X0.150000X0.150000X0.150000X0.150000X-0.150000X-0.150000X-0.150000X90.000000*%
%ADD22R,0.300000X0.300000*%
%ADD23RoundRect,0.135000X0.135000X0.185000X-0.135000X0.185000X-0.135000X-0.185000X0.135000X-0.185000X0*%
%ADD24RoundRect,0.140000X0.140000X0.170000X-0.140000X0.170000X-0.140000X-0.170000X0.140000X-0.170000X0*%
%ADD25FreePoly0,180.000000*%
%ADD26FreePoly1,180.000000*%
%ADD27RoundRect,0.135000X-0.185000X0.135000X-0.185000X-0.135000X0.185000X-0.135000X0.185000X0.135000X0*%
%ADD28RoundRect,0.140000X0.170000X-0.140000X0.170000X0.140000X-0.170000X0.140000X-0.170000X-0.140000X0*%
%ADD29R,2.200000X2.200000*%
%ADD30R,1.250000X2.200000*%
%ADD31FreePoly2,225.000000*%
%ADD32FreePoly3,225.000000*%
%ADD33FreePoly0,0.000000*%
%ADD34FreePoly1,0.000000*%
%ADD35RoundRect,0.135000X-0.135000X-0.185000X0.135000X-0.185000X0.135000X0.185000X-0.135000X0.185000X0*%
G04 APERTURE END LIST*
D10*
%TO.C,A1*%
X132590602Y-77526500D02*
X132212602Y-77526500D01*
X131902602Y-77216500D01*
X131902602Y-76751500D01*
X132590602Y-76751500D01*
X132590602Y-77526500D01*
G36*
X132590602Y-77526500D02*
G01*
X132212602Y-77526500D01*
X131902602Y-77216500D01*
X131902602Y-76751500D01*
X132590602Y-76751500D01*
X132590602Y-77526500D01*
G37*
%TD*%
D11*
%TO.C,Q5*%
X154872568Y-127830000D03*
X154872568Y-128210000D03*
D12*
X155522568Y-128020000D03*
%TD*%
D11*
%TO.C,Q4*%
X154872568Y-123078655D03*
X154872568Y-123458655D03*
D12*
X155522568Y-123268655D03*
%TD*%
D13*
%TO.C,IC3*%
X150063651Y-104421638D03*
X150563651Y-104421638D03*
X151063651Y-104421638D03*
X151063651Y-102821638D03*
X150563651Y-102821638D03*
X150063651Y-102821638D03*
D14*
X150563651Y-103621638D03*
%TD*%
D13*
%TO.C,IC2*%
X155493647Y-104421638D03*
X155993647Y-104421638D03*
X156493647Y-104421638D03*
X156493647Y-102821638D03*
X155993647Y-102821638D03*
X155493647Y-102821638D03*
D14*
X155993647Y-103621638D03*
%TD*%
D15*
%TO.C,IC1*%
X133096602Y-102412214D03*
X132276602Y-102412214D03*
X131456602Y-102412214D03*
X130636602Y-102412214D03*
X129816602Y-102412214D03*
X128996602Y-102412214D03*
X128996602Y-103772214D03*
X129816602Y-103772214D03*
X130636602Y-103772214D03*
X131456602Y-103772214D03*
X132276602Y-103772214D03*
X133096602Y-103772214D03*
%TD*%
D16*
%TO.C,D4*%
X166247637Y-106500000D03*
X166247637Y-107200000D03*
%TD*%
%TO.C,D3*%
X166247637Y-99690000D03*
X166247637Y-98990000D03*
%TD*%
%TO.C,D2*%
X118311810Y-106500000D03*
X118311810Y-107200000D03*
%TD*%
%TO.C,D1*%
X118311810Y-99690000D03*
X118311810Y-98990000D03*
%TD*%
D17*
%TO.C,A1*%
X131446602Y-77139000D03*
X130646602Y-77139000D03*
X129846602Y-77139000D03*
X132246602Y-78415000D03*
X131446602Y-78415000D03*
X130646602Y-78415000D03*
X129846602Y-78415000D03*
%TD*%
D18*
%TO.C,Rext1*%
X135020000Y-126340000D03*
X135020000Y-125320000D03*
%TD*%
D19*
%TO.C,TP6*%
X151772568Y-128020000D03*
%TD*%
%TO.C,TP11*%
X125285000Y-89092631D03*
%TD*%
%TO.C,TP1*%
X122835000Y-86900000D03*
%TD*%
D20*
%TO.C,C1*%
X133495000Y-77234500D03*
X134455000Y-77234500D03*
%TD*%
D21*
%TO.C,U1*%
X132596703Y-125095750D03*
D22*
X132596703Y-125595750D03*
X132596703Y-126095750D03*
X132596703Y-126595750D03*
X131771703Y-126895750D03*
X131271703Y-126895750D03*
X130771703Y-126895750D03*
X130271703Y-126895750D03*
X129446703Y-126595750D03*
X129446703Y-126095750D03*
X129446703Y-125595750D03*
X129446703Y-125095750D03*
X130271703Y-124795750D03*
X130771703Y-124795750D03*
X131271703Y-124795750D03*
X131771703Y-124795750D03*
%TD*%
D23*
%TO.C,R4*%
X156503647Y-106800024D03*
X155483647Y-106800024D03*
%TD*%
D24*
%TO.C,C_VDDV1*%
X132970000Y-107790000D03*
X132010000Y-107790000D03*
%TD*%
D18*
%TO.C,R2*%
X152350000Y-104120000D03*
X152350000Y-103100000D03*
%TD*%
D19*
%TO.C,TP8*%
X148399651Y-101010024D03*
%TD*%
D25*
%TO.C,PMOD1*%
X169356000Y-109428998D03*
D26*
X169356000Y-106888998D03*
X169356000Y-104348998D03*
X169356000Y-101808998D03*
X169356000Y-99268998D03*
X169356000Y-96728998D03*
X171896000Y-109428998D03*
X171896000Y-106888998D03*
X171896000Y-104348998D03*
X171896000Y-101808998D03*
X171896000Y-99268998D03*
X171896000Y-96728998D03*
%TD*%
D18*
%TO.C,R5*%
X157769651Y-104131638D03*
X157769651Y-103111638D03*
%TD*%
D27*
%TO.C,R9*%
X131860000Y-122390000D03*
X131860000Y-123410000D03*
%TD*%
D24*
%TO.C,C_VDDC1*%
X133130000Y-98390000D03*
X132170000Y-98390000D03*
%TD*%
D28*
%TO.C,C4*%
X128200000Y-126325750D03*
X128200000Y-125365750D03*
%TD*%
%TO.C,C7*%
X155513647Y-101517798D03*
X155513647Y-100557798D03*
%TD*%
D29*
%TO.C,D5*%
X131946602Y-85740000D03*
D30*
X129671602Y-85740000D03*
%TD*%
D19*
%TO.C,TP5*%
X151772568Y-123268655D03*
%TD*%
D31*
%TO.C,JP1*%
X122959619Y-94055381D03*
D32*
X122040381Y-94974619D03*
%TD*%
D28*
%TO.C,C2*%
X135525000Y-78257000D03*
X135525000Y-77297000D03*
%TD*%
D33*
%TO.C,PMOD2*%
X115260000Y-109453998D03*
D34*
X115260000Y-106913998D03*
X115260000Y-104373998D03*
X115260000Y-101833998D03*
X115260000Y-99293998D03*
X115260000Y-96753998D03*
X112720000Y-109453998D03*
X112720000Y-106913998D03*
X112720000Y-104373998D03*
X112720000Y-101833998D03*
X112720000Y-99293998D03*
X112720000Y-96753998D03*
%TD*%
D20*
%TO.C,C6*%
X155513647Y-105740024D03*
X156473647Y-105740024D03*
%TD*%
D23*
%TO.C,R7*%
X134485000Y-78309500D03*
X133465000Y-78309500D03*
%TD*%
%TO.C,R1*%
X151073651Y-106800024D03*
X150053651Y-106800024D03*
%TD*%
D24*
%TO.C,C_VDD1*%
X130070000Y-107790000D03*
X129110000Y-107790000D03*
%TD*%
D28*
%TO.C,C9*%
X150063651Y-101517798D03*
X150063651Y-100557798D03*
%TD*%
D35*
%TO.C,R13*%
X130511703Y-128120000D03*
X131531703Y-128120000D03*
%TD*%
D28*
%TO.C,C3*%
X129550000Y-123380000D03*
X129550000Y-122420000D03*
%TD*%
D27*
%TO.C,R8*%
X130700000Y-122390000D03*
X130700000Y-123410000D03*
%TD*%
%TO.C,R3*%
X153542568Y-122758655D03*
X153542568Y-123778655D03*
%TD*%
D28*
%TO.C,C5*%
X156529647Y-101517798D03*
X156529647Y-100557798D03*
%TD*%
D19*
%TO.C,TP9*%
X153859651Y-101037798D03*
%TD*%
D20*
%TO.C,C8*%
X150083651Y-105740024D03*
X151043651Y-105740024D03*
%TD*%
D28*
%TO.C,C10*%
X133820000Y-126320000D03*
X133820000Y-125360000D03*
%TD*%
D27*
%TO.C,R14*%
X153540000Y-127510000D03*
X153540000Y-128530000D03*
%TD*%
D18*
%TO.C,R6*%
X134100000Y-86250000D03*
X134100000Y-85230000D03*
%TD*%
D19*
%TO.C,TP10*%
X158179651Y-101037798D03*
%TD*%
D28*
%TO.C,C11*%
X151080000Y-101517798D03*
X151080000Y-100557798D03*
%TD*%
M02*
