%TF.GenerationSoftware,KiCad,Pcbnew,8.0.5-8.0.5-0~ubuntu24.04.1*%
%TF.CreationDate,2024-09-18T14:46:25+03:00*%
%TF.ProjectId,PMOD1,504d4f44-312e-46b6-9963-61645f706362,rev?*%
%TF.SameCoordinates,Original*%
%TF.FileFunction,Profile,NP*%
%FSLAX46Y46*%
G04 Gerber Fmt 4.6, Leading zero omitted, Abs format (unit mm)*
G04 Created by KiCad (PCBNEW 8.0.5-8.0.5-0~ubuntu24.04.1) date 2024-09-18 14:46:25*
%MOMM*%
%LPD*%
G01*
G04 APERTURE LIST*
%TA.AperFunction,Profile*%
%ADD10C,0.100000*%
%TD*%
G04 APERTURE END LIST*
D10*
X164820659Y-102352344D02*
X164858282Y-102355205D01*
X164895358Y-102359916D01*
X164931840Y-102366431D01*
X164967682Y-102374703D01*
X165002837Y-102384686D01*
X165037259Y-102396333D01*
X165070902Y-102409598D01*
X165103718Y-102424434D01*
X165135661Y-102440794D01*
X165166685Y-102458632D01*
X165196743Y-102477902D01*
X165225788Y-102498557D01*
X165253774Y-102520549D01*
X165280655Y-102543834D01*
X165306384Y-102568364D01*
X165330914Y-102594093D01*
X165354198Y-102620973D01*
X165376191Y-102648960D01*
X165396846Y-102678005D01*
X165416116Y-102708063D01*
X165433954Y-102739087D01*
X165450314Y-102771030D01*
X165465150Y-102803846D01*
X165478415Y-102837489D01*
X165490062Y-102871911D01*
X165500045Y-102907067D01*
X165508317Y-102942909D01*
X165514832Y-102979391D01*
X165519544Y-103016467D01*
X165522404Y-103054090D01*
X165523368Y-103092213D01*
X165522404Y-103130336D01*
X165519544Y-103167959D01*
X165514832Y-103205035D01*
X165508317Y-103241517D01*
X165500045Y-103277360D01*
X165490062Y-103312515D01*
X165478415Y-103346937D01*
X165465150Y-103380580D01*
X165450314Y-103413396D01*
X165433954Y-103445339D01*
X165416116Y-103476363D01*
X165396846Y-103506421D01*
X165376191Y-103535466D01*
X165354198Y-103563453D01*
X165330914Y-103590333D01*
X165306384Y-103616062D01*
X165280655Y-103640592D01*
X165253774Y-103663877D01*
X165225788Y-103685870D01*
X165196743Y-103706524D01*
X165166685Y-103725794D01*
X165135661Y-103743632D01*
X165103718Y-103759993D01*
X165070902Y-103774828D01*
X165037259Y-103788093D01*
X165002837Y-103799740D01*
X164967682Y-103809723D01*
X164931840Y-103817995D01*
X164895358Y-103824510D01*
X164858282Y-103829222D01*
X164820659Y-103832082D01*
X164782536Y-103833046D01*
X164744413Y-103832082D01*
X164706790Y-103829222D01*
X164669714Y-103824510D01*
X164633232Y-103817995D01*
X164597390Y-103809723D01*
X164562234Y-103799740D01*
X164527812Y-103788093D01*
X164494170Y-103774828D01*
X164461354Y-103759993D01*
X164429410Y-103743632D01*
X164398387Y-103725794D01*
X164368329Y-103706524D01*
X164339283Y-103685870D01*
X164311297Y-103663877D01*
X164284416Y-103640592D01*
X164258687Y-103616062D01*
X164234157Y-103590333D01*
X164210873Y-103563453D01*
X164188880Y-103535466D01*
X164168225Y-103506421D01*
X164148955Y-103476363D01*
X164131117Y-103445339D01*
X164114757Y-103413396D01*
X164099921Y-103380580D01*
X164086656Y-103346937D01*
X164075009Y-103312515D01*
X164065026Y-103277360D01*
X164056754Y-103241517D01*
X164050239Y-103205035D01*
X164045528Y-103167959D01*
X164042667Y-103130336D01*
X164041703Y-103092213D01*
X164042667Y-103054090D01*
X164045528Y-103016467D01*
X164050239Y-102979391D01*
X164056754Y-102942909D01*
X164065026Y-102907067D01*
X164075009Y-102871911D01*
X164086656Y-102837489D01*
X164099921Y-102803846D01*
X164114757Y-102771030D01*
X164131117Y-102739087D01*
X164148955Y-102708063D01*
X164168225Y-102678005D01*
X164188880Y-102648960D01*
X164210873Y-102620973D01*
X164234157Y-102594093D01*
X164258687Y-102568364D01*
X164284416Y-102543834D01*
X164311297Y-102520549D01*
X164339283Y-102498557D01*
X164368329Y-102477902D01*
X164398387Y-102458632D01*
X164429410Y-102440794D01*
X164461354Y-102424434D01*
X164494170Y-102409598D01*
X164527812Y-102396333D01*
X164562234Y-102384686D01*
X164597390Y-102374703D01*
X164633232Y-102366431D01*
X164669714Y-102359916D01*
X164706790Y-102355205D01*
X164744413Y-102352344D01*
X164782536Y-102351380D01*
X164820659Y-102352344D01*
X131139203Y-113544219D02*
X131176826Y-113547080D01*
X131213902Y-113551791D01*
X131250384Y-113558306D01*
X131286226Y-113566579D01*
X131321381Y-113576561D01*
X131355804Y-113588209D01*
X131389446Y-113601473D01*
X131422262Y-113616309D01*
X131454206Y-113632669D01*
X131485229Y-113650508D01*
X131515287Y-113669777D01*
X131544333Y-113690432D01*
X131572319Y-113712425D01*
X131599200Y-113735710D01*
X131624928Y-113760240D01*
X131649458Y-113785968D01*
X131672743Y-113812849D01*
X131694736Y-113840835D01*
X131715391Y-113869881D01*
X131734660Y-113899939D01*
X131752499Y-113930962D01*
X131768859Y-113962906D01*
X131783695Y-113995722D01*
X131796959Y-114029364D01*
X131808607Y-114063787D01*
X131818589Y-114098942D01*
X131826862Y-114134784D01*
X131833377Y-114171266D01*
X131838088Y-114208342D01*
X131840949Y-114245965D01*
X131841913Y-114284089D01*
X131840949Y-114322212D01*
X131838088Y-114359835D01*
X131833377Y-114396911D01*
X131826862Y-114433393D01*
X131818589Y-114469235D01*
X131808607Y-114504390D01*
X131796959Y-114538813D01*
X131783695Y-114572455D01*
X131768859Y-114605271D01*
X131752499Y-114637215D01*
X131734660Y-114668238D01*
X131715391Y-114698296D01*
X131694736Y-114727342D01*
X131672743Y-114755328D01*
X131649458Y-114782209D01*
X131624928Y-114807938D01*
X131599200Y-114832467D01*
X131572319Y-114855752D01*
X131544333Y-114877745D01*
X131515287Y-114898400D01*
X131485229Y-114917669D01*
X131454206Y-114935508D01*
X131422262Y-114951868D01*
X131389446Y-114966704D01*
X131355804Y-114979968D01*
X131321381Y-114991616D01*
X131286226Y-115001599D01*
X131250384Y-115009871D01*
X131213902Y-115016386D01*
X131176826Y-115021097D01*
X131139203Y-115023958D01*
X131101079Y-115024922D01*
X131062956Y-115023958D01*
X131025333Y-115021097D01*
X130988257Y-115016386D01*
X130951775Y-115009871D01*
X130915933Y-115001599D01*
X130880778Y-114991616D01*
X130846355Y-114979968D01*
X130812713Y-114966704D01*
X130779897Y-114951868D01*
X130747953Y-114935508D01*
X130716930Y-114917669D01*
X130686872Y-114898400D01*
X130657826Y-114877745D01*
X130629840Y-114855752D01*
X130602959Y-114832467D01*
X130577230Y-114807938D01*
X130552701Y-114782209D01*
X130529416Y-114755328D01*
X130507423Y-114727342D01*
X130486768Y-114698296D01*
X130467499Y-114668238D01*
X130449660Y-114637215D01*
X130433300Y-114605271D01*
X130418464Y-114572455D01*
X130405200Y-114538813D01*
X130393552Y-114504390D01*
X130383569Y-114469235D01*
X130375297Y-114433393D01*
X130368782Y-114396911D01*
X130364071Y-114359835D01*
X130361210Y-114322212D01*
X130360246Y-114284089D01*
X130361210Y-114245965D01*
X130364071Y-114208342D01*
X130368782Y-114171266D01*
X130375297Y-114134784D01*
X130383569Y-114098942D01*
X130393552Y-114063787D01*
X130405200Y-114029364D01*
X130418464Y-113995722D01*
X130433300Y-113962906D01*
X130449660Y-113930962D01*
X130467499Y-113899939D01*
X130486768Y-113869881D01*
X130507423Y-113840835D01*
X130529416Y-113812849D01*
X130552701Y-113785968D01*
X130577230Y-113760240D01*
X130602959Y-113735710D01*
X130629840Y-113712425D01*
X130657826Y-113690432D01*
X130686872Y-113669777D01*
X130716930Y-113650508D01*
X130747953Y-113632669D01*
X130779897Y-113616309D01*
X130812713Y-113601473D01*
X130846355Y-113588209D01*
X130880778Y-113576561D01*
X130915933Y-113566579D01*
X130951775Y-113558306D01*
X130988257Y-113551791D01*
X131025333Y-113547080D01*
X131062956Y-113544219D01*
X131101079Y-113543255D01*
X131139203Y-113544219D01*
X119841496Y-79995055D02*
X119879119Y-79997916D01*
X119916195Y-80002627D01*
X119952677Y-80009142D01*
X119988519Y-80017415D01*
X120023675Y-80027398D01*
X120058097Y-80039045D01*
X120091739Y-80052310D01*
X120124556Y-80067145D01*
X120156499Y-80083506D01*
X120187523Y-80101344D01*
X120217581Y-80120614D01*
X120246626Y-80141268D01*
X120274612Y-80163261D01*
X120301493Y-80186546D01*
X120327222Y-80211076D01*
X120351752Y-80236805D01*
X120375037Y-80263685D01*
X120397029Y-80291672D01*
X120417684Y-80320717D01*
X120436954Y-80350775D01*
X120454792Y-80381799D01*
X120471152Y-80413742D01*
X120485988Y-80446558D01*
X120499253Y-80480200D01*
X120510900Y-80514623D01*
X120520883Y-80549778D01*
X120529155Y-80585620D01*
X120535670Y-80622102D01*
X120540381Y-80659178D01*
X120543242Y-80696801D01*
X120544206Y-80734924D01*
X120543242Y-80773047D01*
X120540381Y-80810670D01*
X120535670Y-80847745D01*
X120529155Y-80884228D01*
X120520883Y-80920070D01*
X120510900Y-80955225D01*
X120499253Y-80989647D01*
X120485988Y-81023290D01*
X120471152Y-81056106D01*
X120454792Y-81088049D01*
X120436954Y-81119073D01*
X120417684Y-81149131D01*
X120397029Y-81178176D01*
X120375037Y-81206163D01*
X120351752Y-81233043D01*
X120327222Y-81258772D01*
X120301493Y-81283302D01*
X120274612Y-81306587D01*
X120246626Y-81328580D01*
X120217581Y-81349234D01*
X120187523Y-81368504D01*
X120156499Y-81386343D01*
X120124556Y-81402703D01*
X120091739Y-81417539D01*
X120058097Y-81430803D01*
X120023675Y-81442451D01*
X119988519Y-81452434D01*
X119952677Y-81460706D01*
X119916195Y-81467221D01*
X119879119Y-81471932D01*
X119841496Y-81474793D01*
X119803373Y-81475757D01*
X119765249Y-81474793D01*
X119727627Y-81471932D01*
X119690551Y-81467221D01*
X119654069Y-81460706D01*
X119618226Y-81452434D01*
X119583071Y-81442451D01*
X119548649Y-81430803D01*
X119515006Y-81417539D01*
X119482190Y-81402703D01*
X119450247Y-81386343D01*
X119419223Y-81368504D01*
X119389165Y-81349234D01*
X119360120Y-81328580D01*
X119332133Y-81306587D01*
X119305252Y-81283302D01*
X119279524Y-81258772D01*
X119254994Y-81233043D01*
X119231709Y-81206163D01*
X119209716Y-81178176D01*
X119189062Y-81149131D01*
X119169792Y-81119073D01*
X119151954Y-81088049D01*
X119135593Y-81056106D01*
X119120758Y-81023290D01*
X119107493Y-80989647D01*
X119095846Y-80955225D01*
X119085863Y-80920070D01*
X119077591Y-80884228D01*
X119071076Y-80847745D01*
X119066364Y-80810670D01*
X119063504Y-80773047D01*
X119062540Y-80734924D01*
X119063504Y-80696801D01*
X119066364Y-80659178D01*
X119071076Y-80622102D01*
X119077591Y-80585620D01*
X119085863Y-80549778D01*
X119095846Y-80514623D01*
X119107493Y-80480200D01*
X119120758Y-80446558D01*
X119135593Y-80413742D01*
X119151954Y-80381799D01*
X119169792Y-80350775D01*
X119189062Y-80320717D01*
X119209716Y-80291672D01*
X119231709Y-80263685D01*
X119254994Y-80236805D01*
X119279524Y-80211076D01*
X119305252Y-80186546D01*
X119332133Y-80163261D01*
X119360120Y-80141268D01*
X119389165Y-80120614D01*
X119419223Y-80101344D01*
X119450247Y-80083506D01*
X119482190Y-80067145D01*
X119515006Y-80052310D01*
X119548649Y-80039045D01*
X119583071Y-80027398D01*
X119618226Y-80017415D01*
X119654069Y-80009142D01*
X119690551Y-80002627D01*
X119727627Y-79997916D01*
X119765249Y-79995055D01*
X119803373Y-79994091D01*
X119841496Y-79995055D01*
X154911563Y-69336014D02*
X155093826Y-69349831D01*
X155274848Y-69372717D01*
X155454321Y-69404556D01*
X155631933Y-69445232D01*
X155807374Y-69494629D01*
X155980335Y-69552629D01*
X156150506Y-69619117D01*
X156317576Y-69693977D01*
X156481235Y-69777092D01*
X156641174Y-69868346D01*
X156797082Y-69967623D01*
X156948649Y-70074806D01*
X157095565Y-70189780D01*
X157237520Y-70312427D01*
X157374204Y-70442633D01*
X174942536Y-88037424D01*
X175072742Y-88169458D01*
X175195389Y-88307382D01*
X175310363Y-88450887D01*
X175417546Y-88599664D01*
X175516823Y-88753401D01*
X175608077Y-88911789D01*
X175691192Y-89074518D01*
X175766052Y-89241278D01*
X175832540Y-89411758D01*
X175890540Y-89585649D01*
X175939937Y-89762641D01*
X175980612Y-89942423D01*
X176012452Y-90124686D01*
X176035338Y-90309119D01*
X176049155Y-90495413D01*
X176053786Y-90683257D01*
X176053786Y-115527634D01*
X176049155Y-115710827D01*
X176035338Y-115893090D01*
X176012452Y-116074112D01*
X175980612Y-116253584D01*
X175939937Y-116431196D01*
X175890540Y-116606638D01*
X175832540Y-116779599D01*
X175766052Y-116949769D01*
X175691192Y-117116839D01*
X175608077Y-117280498D01*
X175516823Y-117440436D01*
X175417546Y-117596344D01*
X175310363Y-117747911D01*
X175195389Y-117894827D01*
X175072742Y-118036782D01*
X174942536Y-118173466D01*
X157374204Y-135741795D01*
X157237513Y-135871993D01*
X157095513Y-135994595D01*
X156948474Y-136109445D01*
X156796668Y-136216389D01*
X156640366Y-136315271D01*
X156479839Y-136405937D01*
X156315360Y-136488232D01*
X156147198Y-136562000D01*
X155975626Y-136627086D01*
X155800914Y-136683336D01*
X155623335Y-136730595D01*
X155443158Y-136768707D01*
X155260656Y-136797517D01*
X155076101Y-136816871D01*
X154889762Y-136826613D01*
X154701911Y-136826588D01*
X129883993Y-136826588D01*
X129700800Y-136821957D01*
X129518538Y-136808140D01*
X129337516Y-136785254D01*
X129158044Y-136753414D01*
X128980432Y-136712739D01*
X128804991Y-136663343D01*
X128632030Y-136605342D01*
X128461859Y-136538854D01*
X128294789Y-136463994D01*
X128131130Y-136380879D01*
X127971191Y-136289625D01*
X127815283Y-136190348D01*
X127663716Y-136083164D01*
X127516800Y-135968190D01*
X127374845Y-135845542D01*
X127238161Y-135715336D01*
X109669832Y-118147007D01*
X109539626Y-118014974D01*
X109416978Y-117877049D01*
X109302004Y-117733543D01*
X109194820Y-117584767D01*
X109095543Y-117431029D01*
X109004289Y-117272641D01*
X108921174Y-117109912D01*
X108846314Y-116943153D01*
X108779826Y-116772673D01*
X108721825Y-116598782D01*
X108672429Y-116421790D01*
X108631754Y-116242008D01*
X108599914Y-116059746D01*
X108577028Y-115875313D01*
X108563211Y-115689019D01*
X108558580Y-115501175D01*
X108558580Y-90656798D01*
X108563211Y-90473605D01*
X108577028Y-90291342D01*
X108599914Y-90110320D01*
X108631754Y-89930847D01*
X108672429Y-89753235D01*
X108721825Y-89577794D01*
X108779826Y-89404833D01*
X108846314Y-89234662D01*
X108921174Y-89067592D01*
X109004289Y-88903933D01*
X109095543Y-88743994D01*
X109194820Y-88588086D01*
X109302004Y-88436519D01*
X109416978Y-88289603D01*
X109539626Y-88147648D01*
X109669832Y-88010964D01*
X127238161Y-70442633D01*
X127370194Y-70312427D01*
X127508119Y-70189780D01*
X127651625Y-70074806D01*
X127800401Y-69967623D01*
X127954139Y-69868346D01*
X128112527Y-69777092D01*
X128275256Y-69693977D01*
X128442015Y-69619117D01*
X128612495Y-69552629D01*
X128786386Y-69494629D01*
X128963378Y-69445232D01*
X129143160Y-69404556D01*
X129325422Y-69372717D01*
X129509855Y-69349831D01*
X129696149Y-69336014D01*
X129883993Y-69331383D01*
X154728370Y-69331383D01*
X154911563Y-69336014D01*
X119815037Y-124974216D02*
X119852660Y-124977077D01*
X119889735Y-124981788D01*
X119926217Y-124988303D01*
X119962059Y-124996575D01*
X119997215Y-125006558D01*
X120031637Y-125018206D01*
X120065279Y-125031470D01*
X120098095Y-125046306D01*
X120130038Y-125062667D01*
X120161062Y-125080505D01*
X120191120Y-125099775D01*
X120220166Y-125120430D01*
X120248152Y-125142423D01*
X120275033Y-125165708D01*
X120300762Y-125190238D01*
X120325292Y-125215967D01*
X120348577Y-125242848D01*
X120370570Y-125270834D01*
X120391224Y-125299880D01*
X120410494Y-125329938D01*
X120428332Y-125360962D01*
X120444693Y-125392905D01*
X120459529Y-125425722D01*
X120472794Y-125459364D01*
X120484441Y-125493787D01*
X120494424Y-125528942D01*
X120502696Y-125564784D01*
X120509211Y-125601267D01*
X120513923Y-125638343D01*
X120516783Y-125675965D01*
X120517747Y-125714089D01*
X120516783Y-125752212D01*
X120513923Y-125789834D01*
X120509211Y-125826910D01*
X120502696Y-125863392D01*
X120494424Y-125899234D01*
X120484441Y-125934389D01*
X120472794Y-125968811D01*
X120459529Y-126002454D01*
X120444693Y-126035270D01*
X120428332Y-126067213D01*
X120410494Y-126098237D01*
X120391224Y-126128295D01*
X120370570Y-126157340D01*
X120348577Y-126185327D01*
X120325292Y-126212208D01*
X120300762Y-126237936D01*
X120275033Y-126262466D01*
X120248152Y-126285751D01*
X120220166Y-126307744D01*
X120191120Y-126328399D01*
X120161062Y-126347669D01*
X120130038Y-126365507D01*
X120098095Y-126381868D01*
X120065279Y-126396704D01*
X120031637Y-126409968D01*
X119997215Y-126421616D01*
X119962059Y-126431599D01*
X119926217Y-126439871D01*
X119889735Y-126446386D01*
X119852660Y-126451097D01*
X119815037Y-126453958D01*
X119776914Y-126454922D01*
X119738791Y-126453958D01*
X119701168Y-126451097D01*
X119664092Y-126446386D01*
X119627610Y-126439871D01*
X119591767Y-126431599D01*
X119556612Y-126421616D01*
X119522189Y-126409968D01*
X119488547Y-126396704D01*
X119455731Y-126381868D01*
X119423787Y-126365507D01*
X119392763Y-126347669D01*
X119362705Y-126328399D01*
X119333659Y-126307744D01*
X119305673Y-126285751D01*
X119278792Y-126262466D01*
X119253063Y-126237936D01*
X119228533Y-126212208D01*
X119205248Y-126185327D01*
X119183255Y-126157340D01*
X119162600Y-126128295D01*
X119143331Y-126098237D01*
X119125492Y-126067213D01*
X119109132Y-126035270D01*
X119094296Y-126002454D01*
X119081031Y-125968811D01*
X119069384Y-125934389D01*
X119059401Y-125899234D01*
X119051128Y-125863392D01*
X119044613Y-125826910D01*
X119039902Y-125789834D01*
X119037041Y-125752212D01*
X119036077Y-125714089D01*
X119037041Y-125675965D01*
X119039902Y-125638343D01*
X119044613Y-125601267D01*
X119051128Y-125564784D01*
X119059401Y-125528942D01*
X119069384Y-125493787D01*
X119081031Y-125459364D01*
X119094296Y-125425722D01*
X119109132Y-125392905D01*
X119125492Y-125360962D01*
X119143331Y-125329938D01*
X119162600Y-125299880D01*
X119183255Y-125270834D01*
X119205248Y-125242848D01*
X119228533Y-125215967D01*
X119253063Y-125190238D01*
X119278792Y-125165708D01*
X119305673Y-125142423D01*
X119333659Y-125120430D01*
X119362705Y-125099775D01*
X119392763Y-125080505D01*
X119423787Y-125062667D01*
X119455731Y-125046306D01*
X119488547Y-125031470D01*
X119522189Y-125018206D01*
X119556612Y-125006558D01*
X119591767Y-124996575D01*
X119627610Y-124988303D01*
X119664092Y-124981788D01*
X119701168Y-124977077D01*
X119738791Y-124974216D01*
X119776914Y-124973252D01*
X119815037Y-124974216D01*
X119815037Y-102352344D02*
X119852660Y-102355205D01*
X119889735Y-102359916D01*
X119926217Y-102366431D01*
X119962059Y-102374703D01*
X119997215Y-102384686D01*
X120031637Y-102396333D01*
X120065279Y-102409598D01*
X120098095Y-102424434D01*
X120130038Y-102440794D01*
X120161062Y-102458632D01*
X120191120Y-102477902D01*
X120220166Y-102498557D01*
X120248152Y-102520549D01*
X120275033Y-102543834D01*
X120300762Y-102568364D01*
X120325292Y-102594093D01*
X120348577Y-102620973D01*
X120370570Y-102648960D01*
X120391224Y-102678005D01*
X120410494Y-102708063D01*
X120428332Y-102739087D01*
X120444693Y-102771030D01*
X120459529Y-102803846D01*
X120472794Y-102837489D01*
X120484441Y-102871911D01*
X120494424Y-102907067D01*
X120502696Y-102942909D01*
X120509211Y-102979391D01*
X120513923Y-103016467D01*
X120516783Y-103054090D01*
X120517747Y-103092213D01*
X120516783Y-103130336D01*
X120513923Y-103167959D01*
X120509211Y-103205035D01*
X120502696Y-103241517D01*
X120494424Y-103277360D01*
X120484441Y-103312515D01*
X120472794Y-103346937D01*
X120459529Y-103380580D01*
X120444693Y-103413396D01*
X120428332Y-103445339D01*
X120410494Y-103476363D01*
X120391224Y-103506421D01*
X120370570Y-103535466D01*
X120348577Y-103563453D01*
X120325292Y-103590333D01*
X120300762Y-103616062D01*
X120275033Y-103640592D01*
X120248152Y-103663877D01*
X120220166Y-103685870D01*
X120191120Y-103706524D01*
X120161062Y-103725794D01*
X120130038Y-103743632D01*
X120098095Y-103759993D01*
X120065279Y-103774828D01*
X120031637Y-103788093D01*
X119997215Y-103799740D01*
X119962059Y-103809723D01*
X119926217Y-103817995D01*
X119889735Y-103824510D01*
X119852660Y-103829222D01*
X119815037Y-103832082D01*
X119776914Y-103833046D01*
X119738791Y-103832082D01*
X119701168Y-103829222D01*
X119664092Y-103824510D01*
X119627610Y-103817995D01*
X119591767Y-103809723D01*
X119556612Y-103799740D01*
X119522189Y-103788093D01*
X119488547Y-103774828D01*
X119455731Y-103759993D01*
X119423787Y-103743632D01*
X119392763Y-103725794D01*
X119362705Y-103706524D01*
X119333659Y-103685870D01*
X119305673Y-103663877D01*
X119278792Y-103640592D01*
X119253063Y-103616062D01*
X119228533Y-103590333D01*
X119205248Y-103563453D01*
X119183255Y-103535466D01*
X119162600Y-103506421D01*
X119143331Y-103476363D01*
X119125492Y-103445339D01*
X119109132Y-103413396D01*
X119094296Y-103380580D01*
X119081031Y-103346937D01*
X119069384Y-103312515D01*
X119059401Y-103277360D01*
X119051128Y-103241517D01*
X119044613Y-103205035D01*
X119039902Y-103167959D01*
X119037041Y-103130336D01*
X119036077Y-103092213D01*
X119037041Y-103054090D01*
X119039902Y-103016467D01*
X119044613Y-102979391D01*
X119051128Y-102942909D01*
X119059401Y-102907067D01*
X119069384Y-102871911D01*
X119081031Y-102837489D01*
X119094296Y-102803846D01*
X119109132Y-102771030D01*
X119125492Y-102739087D01*
X119143331Y-102708063D01*
X119162600Y-102678005D01*
X119183255Y-102648960D01*
X119205248Y-102620973D01*
X119228533Y-102594093D01*
X119253063Y-102568364D01*
X119278792Y-102543834D01*
X119305673Y-102520549D01*
X119333659Y-102498557D01*
X119362705Y-102477902D01*
X119392763Y-102458632D01*
X119423787Y-102440794D01*
X119455731Y-102424434D01*
X119488547Y-102409598D01*
X119522189Y-102396333D01*
X119556612Y-102384686D01*
X119591767Y-102374703D01*
X119627610Y-102366431D01*
X119664092Y-102359916D01*
X119701168Y-102355205D01*
X119738791Y-102352344D01*
X119776914Y-102351380D01*
X119815037Y-102352344D01*
X142351501Y-131959737D02*
X142409279Y-131964130D01*
X142466217Y-131971365D01*
X142522244Y-131981370D01*
X142577287Y-131994074D01*
X142631275Y-132009405D01*
X142684138Y-132027292D01*
X142735803Y-132047663D01*
X142786199Y-132070447D01*
X142835255Y-132095571D01*
X142882899Y-132122966D01*
X142929059Y-132152559D01*
X142973665Y-132184279D01*
X143016644Y-132218053D01*
X143057925Y-132253812D01*
X143097436Y-132291483D01*
X143135107Y-132330995D01*
X143170866Y-132372277D01*
X143204641Y-132415256D01*
X143236360Y-132459861D01*
X143265953Y-132506022D01*
X143293347Y-132553666D01*
X143318472Y-132602722D01*
X143341256Y-132653118D01*
X143361626Y-132704783D01*
X143379513Y-132757646D01*
X143394844Y-132811635D01*
X143407548Y-132866678D01*
X143417553Y-132922704D01*
X143424788Y-132979642D01*
X143429181Y-133037420D01*
X143430662Y-133095967D01*
X143429181Y-133154513D01*
X143424788Y-133212290D01*
X143417553Y-133269227D01*
X143407548Y-133325253D01*
X143394844Y-133380296D01*
X143379513Y-133434284D01*
X143361626Y-133487146D01*
X143341256Y-133538811D01*
X143318472Y-133589207D01*
X143293347Y-133638263D01*
X143265953Y-133685906D01*
X143236360Y-133732066D01*
X143204641Y-133776672D01*
X143170866Y-133819651D01*
X143135107Y-133860932D01*
X143097436Y-133900443D01*
X143057925Y-133938114D01*
X143016644Y-133973873D01*
X142973665Y-134007648D01*
X142929059Y-134039367D01*
X142882899Y-134068960D01*
X142835255Y-134096355D01*
X142786199Y-134121479D01*
X142735803Y-134144263D01*
X142684138Y-134164634D01*
X142631275Y-134182521D01*
X142577287Y-134197852D01*
X142522244Y-134210556D01*
X142466217Y-134220561D01*
X142409279Y-134227796D01*
X142351501Y-134232189D01*
X142292955Y-134233670D01*
X142234408Y-134232189D01*
X142176630Y-134227796D01*
X142119692Y-134220561D01*
X142063666Y-134210556D01*
X142008623Y-134197852D01*
X141954634Y-134182521D01*
X141901771Y-134164634D01*
X141850106Y-134144263D01*
X141799710Y-134121479D01*
X141750654Y-134096355D01*
X141703010Y-134068960D01*
X141656849Y-134039367D01*
X141612244Y-134007648D01*
X141569265Y-133973873D01*
X141527983Y-133938114D01*
X141488472Y-133900443D01*
X141450800Y-133860932D01*
X141415042Y-133819651D01*
X141381267Y-133776672D01*
X141349547Y-133732066D01*
X141319954Y-133685906D01*
X141292560Y-133638263D01*
X141267435Y-133589207D01*
X141244651Y-133538811D01*
X141224280Y-133487146D01*
X141206393Y-133434284D01*
X141191062Y-133380296D01*
X141178359Y-133325253D01*
X141168353Y-133269227D01*
X141161118Y-133212290D01*
X141156725Y-133154513D01*
X141155244Y-133095967D01*
X141156725Y-133037420D01*
X141161118Y-132979642D01*
X141168353Y-132922704D01*
X141178359Y-132866678D01*
X141191062Y-132811635D01*
X141206393Y-132757646D01*
X141224280Y-132704783D01*
X141244651Y-132653118D01*
X141267435Y-132602722D01*
X141292560Y-132553666D01*
X141319954Y-132506022D01*
X141349547Y-132459861D01*
X141381267Y-132415256D01*
X141415042Y-132372277D01*
X141450800Y-132330995D01*
X141488472Y-132291483D01*
X141527983Y-132253812D01*
X141569265Y-132218053D01*
X141612244Y-132184279D01*
X141656849Y-132152559D01*
X141703010Y-132122966D01*
X141750654Y-132095571D01*
X141799710Y-132070447D01*
X141850106Y-132047663D01*
X141901771Y-132027292D01*
X141954634Y-132009405D01*
X142008623Y-131994074D01*
X142063666Y-131981370D01*
X142119692Y-131971365D01*
X142176630Y-131964130D01*
X142234408Y-131959737D01*
X142292955Y-131958256D01*
X142351501Y-131959737D01*
X142351501Y-71952238D02*
X142409279Y-71956631D01*
X142466217Y-71963866D01*
X142522244Y-71973872D01*
X142577287Y-71986575D01*
X142631275Y-72001907D01*
X142684138Y-72019793D01*
X142735803Y-72040164D01*
X142786199Y-72062948D01*
X142835255Y-72088073D01*
X142882899Y-72115467D01*
X142929059Y-72145060D01*
X142973665Y-72176780D01*
X143016644Y-72210555D01*
X143057925Y-72246313D01*
X143097436Y-72283984D01*
X143135107Y-72323496D01*
X143170866Y-72364778D01*
X143204641Y-72407757D01*
X143236360Y-72452362D01*
X143265953Y-72498523D01*
X143293347Y-72546166D01*
X143318472Y-72595222D01*
X143341256Y-72645618D01*
X143361626Y-72697283D01*
X143379513Y-72750146D01*
X143394844Y-72804135D01*
X143407548Y-72859178D01*
X143417553Y-72915204D01*
X143424788Y-72972142D01*
X143429181Y-73029919D01*
X143430662Y-73088466D01*
X143429181Y-73147012D01*
X143424788Y-73204790D01*
X143417553Y-73261727D01*
X143407548Y-73317754D01*
X143394844Y-73372797D01*
X143379513Y-73426785D01*
X143361626Y-73479648D01*
X143341256Y-73531313D01*
X143318472Y-73581709D01*
X143293347Y-73630765D01*
X143265953Y-73678409D01*
X143236360Y-73724569D01*
X143204641Y-73769175D01*
X143170866Y-73812154D01*
X143135107Y-73853435D01*
X143097436Y-73892947D01*
X143057925Y-73930618D01*
X143016644Y-73966377D01*
X142973665Y-74000152D01*
X142929059Y-74031871D01*
X142882899Y-74061464D01*
X142835255Y-74088859D01*
X142786199Y-74113983D01*
X142735803Y-74136767D01*
X142684138Y-74157138D01*
X142631275Y-74175025D01*
X142577287Y-74190356D01*
X142522244Y-74203060D01*
X142466217Y-74213065D01*
X142409279Y-74220300D01*
X142351501Y-74224693D01*
X142292955Y-74226174D01*
X142234408Y-74224693D01*
X142176630Y-74220300D01*
X142119692Y-74213065D01*
X142063666Y-74203060D01*
X142008623Y-74190356D01*
X141954634Y-74175025D01*
X141901771Y-74157138D01*
X141850106Y-74136767D01*
X141799710Y-74113983D01*
X141750654Y-74088859D01*
X141703010Y-74061464D01*
X141656849Y-74031871D01*
X141612244Y-74000152D01*
X141569265Y-73966377D01*
X141527983Y-73930618D01*
X141488472Y-73892947D01*
X141450800Y-73853435D01*
X141415042Y-73812154D01*
X141381267Y-73769175D01*
X141349547Y-73724569D01*
X141319954Y-73678409D01*
X141292560Y-73630765D01*
X141267435Y-73581709D01*
X141244651Y-73531313D01*
X141224280Y-73479648D01*
X141206393Y-73426785D01*
X141191062Y-73372797D01*
X141178359Y-73317754D01*
X141168353Y-73261727D01*
X141161118Y-73204790D01*
X141156725Y-73147012D01*
X141155244Y-73088466D01*
X141156725Y-73029919D01*
X141161118Y-72972142D01*
X141168353Y-72915204D01*
X141178359Y-72859178D01*
X141191062Y-72804135D01*
X141206393Y-72750146D01*
X141224280Y-72697283D01*
X141244651Y-72645618D01*
X141267435Y-72595222D01*
X141292560Y-72546166D01*
X141319954Y-72498523D01*
X141349547Y-72452362D01*
X141381267Y-72407757D01*
X141415042Y-72364778D01*
X141450800Y-72323496D01*
X141488472Y-72283984D01*
X141527983Y-72246313D01*
X141569265Y-72210555D01*
X141612244Y-72176780D01*
X141656849Y-72145060D01*
X141703010Y-72115467D01*
X141750654Y-72088073D01*
X141799710Y-72062948D01*
X141850106Y-72040164D01*
X141901771Y-72019793D01*
X141954634Y-72001907D01*
X142008623Y-71986575D01*
X142063666Y-71973872D01*
X142119692Y-71963866D01*
X142176630Y-71956631D01*
X142234408Y-71952238D01*
X142292955Y-71950757D01*
X142351501Y-71952238D01*
X142331078Y-124868385D02*
X142368701Y-124871245D01*
X142405777Y-124875957D01*
X142442259Y-124882472D01*
X142478101Y-124890744D01*
X142513257Y-124900727D01*
X142547679Y-124912374D01*
X142581322Y-124925639D01*
X142614138Y-124940475D01*
X142646081Y-124956836D01*
X142677105Y-124974674D01*
X142707163Y-124993944D01*
X142736208Y-125014598D01*
X142764195Y-125036591D01*
X142791075Y-125059876D01*
X142816804Y-125084406D01*
X142841334Y-125110135D01*
X142864619Y-125137016D01*
X142886611Y-125165002D01*
X142907266Y-125194048D01*
X142926536Y-125224106D01*
X142944374Y-125255130D01*
X142960734Y-125287073D01*
X142975570Y-125319889D01*
X142988835Y-125353531D01*
X143000482Y-125387953D01*
X143010465Y-125423109D01*
X143018737Y-125458951D01*
X143025252Y-125495433D01*
X143029963Y-125532508D01*
X143032824Y-125570131D01*
X143033788Y-125608254D01*
X143032824Y-125646377D01*
X143029963Y-125684000D01*
X143025252Y-125721076D01*
X143018737Y-125757558D01*
X143010465Y-125793401D01*
X143000482Y-125828556D01*
X142988835Y-125862979D01*
X142975570Y-125896621D01*
X142960734Y-125929437D01*
X142944374Y-125961381D01*
X142926536Y-125992405D01*
X142907266Y-126022463D01*
X142886611Y-126051509D01*
X142864619Y-126079495D01*
X142841334Y-126106376D01*
X142816804Y-126132105D01*
X142791075Y-126156635D01*
X142764195Y-126179920D01*
X142736208Y-126201913D01*
X142707163Y-126222568D01*
X142677105Y-126241837D01*
X142646081Y-126259676D01*
X142614138Y-126276036D01*
X142581322Y-126290872D01*
X142547679Y-126304137D01*
X142513257Y-126315784D01*
X142478101Y-126325767D01*
X142442259Y-126334040D01*
X142405777Y-126340555D01*
X142368701Y-126345266D01*
X142331078Y-126348127D01*
X142292955Y-126349091D01*
X142254832Y-126348127D01*
X142217209Y-126345266D01*
X142180133Y-126340555D01*
X142143651Y-126334040D01*
X142107808Y-126325767D01*
X142072653Y-126315784D01*
X142038231Y-126304137D01*
X142004588Y-126290872D01*
X141971772Y-126276036D01*
X141939829Y-126259676D01*
X141908805Y-126241837D01*
X141878747Y-126222568D01*
X141849702Y-126201913D01*
X141821715Y-126179920D01*
X141794835Y-126156635D01*
X141769106Y-126132105D01*
X141744576Y-126106376D01*
X141721291Y-126079495D01*
X141699298Y-126051509D01*
X141678644Y-126022463D01*
X141659374Y-125992405D01*
X141641536Y-125961381D01*
X141625175Y-125929437D01*
X141610340Y-125896621D01*
X141597075Y-125862979D01*
X141585428Y-125828556D01*
X141575445Y-125793401D01*
X141567173Y-125757558D01*
X141560658Y-125721076D01*
X141555946Y-125684000D01*
X141553086Y-125646377D01*
X141552122Y-125608254D01*
X141553086Y-125570131D01*
X141555946Y-125532508D01*
X141560658Y-125495433D01*
X141567173Y-125458951D01*
X141575445Y-125423109D01*
X141585428Y-125387953D01*
X141597075Y-125353531D01*
X141610340Y-125319889D01*
X141625175Y-125287073D01*
X141641536Y-125255130D01*
X141659374Y-125224106D01*
X141678644Y-125194048D01*
X141699298Y-125165002D01*
X141721291Y-125137016D01*
X141744576Y-125110135D01*
X141769106Y-125084406D01*
X141794835Y-125059876D01*
X141821715Y-125036591D01*
X141849702Y-125014598D01*
X141878747Y-124993944D01*
X141908805Y-124974674D01*
X141939829Y-124956836D01*
X141971772Y-124940475D01*
X142004588Y-124925639D01*
X142038231Y-124912374D01*
X142072653Y-124900727D01*
X142107808Y-124890744D01*
X142143651Y-124882472D01*
X142180133Y-124875957D01*
X142217209Y-124871245D01*
X142254832Y-124868385D01*
X142292955Y-124867421D01*
X142331078Y-124868385D01*
X164794200Y-79995055D02*
X164831823Y-79997916D01*
X164868899Y-80002627D01*
X164905381Y-80009142D01*
X164941223Y-80017415D01*
X164976379Y-80027398D01*
X165010801Y-80039045D01*
X165044443Y-80052310D01*
X165077259Y-80067145D01*
X165109202Y-80083506D01*
X165140226Y-80101344D01*
X165170284Y-80120614D01*
X165199330Y-80141268D01*
X165227316Y-80163261D01*
X165254197Y-80186546D01*
X165279926Y-80211076D01*
X165304456Y-80236805D01*
X165327740Y-80263685D01*
X165349733Y-80291672D01*
X165370388Y-80320717D01*
X165389658Y-80350775D01*
X165407496Y-80381799D01*
X165423856Y-80413742D01*
X165438692Y-80446558D01*
X165451957Y-80480200D01*
X165463604Y-80514623D01*
X165473587Y-80549778D01*
X165481859Y-80585620D01*
X165488375Y-80622102D01*
X165493086Y-80659178D01*
X165495947Y-80696801D01*
X165496911Y-80734924D01*
X165495947Y-80773047D01*
X165493086Y-80810670D01*
X165488375Y-80847745D01*
X165481859Y-80884228D01*
X165473587Y-80920070D01*
X165463604Y-80955225D01*
X165451957Y-80989647D01*
X165438692Y-81023290D01*
X165423856Y-81056106D01*
X165407496Y-81088049D01*
X165389658Y-81119073D01*
X165370388Y-81149131D01*
X165349733Y-81178176D01*
X165327740Y-81206163D01*
X165304456Y-81233043D01*
X165279926Y-81258772D01*
X165254197Y-81283302D01*
X165227316Y-81306587D01*
X165199330Y-81328580D01*
X165170284Y-81349234D01*
X165140226Y-81368504D01*
X165109202Y-81386343D01*
X165077259Y-81402703D01*
X165044443Y-81417539D01*
X165010801Y-81430803D01*
X164976379Y-81442451D01*
X164941223Y-81452434D01*
X164905381Y-81460706D01*
X164868899Y-81467221D01*
X164831823Y-81471932D01*
X164794200Y-81474793D01*
X164756077Y-81475757D01*
X164717954Y-81474793D01*
X164680331Y-81471932D01*
X164643256Y-81467221D01*
X164606774Y-81460706D01*
X164570932Y-81452434D01*
X164535776Y-81442451D01*
X164501354Y-81430803D01*
X164467712Y-81417539D01*
X164434896Y-81402703D01*
X164402952Y-81386343D01*
X164371928Y-81368504D01*
X164341871Y-81349234D01*
X164312825Y-81328580D01*
X164284839Y-81306587D01*
X164257958Y-81283302D01*
X164232229Y-81258772D01*
X164207700Y-81233043D01*
X164184415Y-81206163D01*
X164162422Y-81178176D01*
X164141767Y-81149131D01*
X164122498Y-81119073D01*
X164104659Y-81088049D01*
X164088299Y-81056106D01*
X164073463Y-81023290D01*
X164060198Y-80989647D01*
X164048551Y-80955225D01*
X164038568Y-80920070D01*
X164030296Y-80884228D01*
X164023781Y-80847745D01*
X164019070Y-80810670D01*
X164016209Y-80773047D01*
X164015245Y-80734924D01*
X164016209Y-80696801D01*
X164019070Y-80659178D01*
X164023781Y-80622102D01*
X164030296Y-80585620D01*
X164038568Y-80549778D01*
X164048551Y-80514623D01*
X164060198Y-80480200D01*
X164073463Y-80446558D01*
X164088299Y-80413742D01*
X164104659Y-80381799D01*
X164122498Y-80350775D01*
X164141767Y-80320717D01*
X164162422Y-80291672D01*
X164184415Y-80263685D01*
X164207700Y-80236805D01*
X164232229Y-80211076D01*
X164257958Y-80186546D01*
X164284839Y-80163261D01*
X164312825Y-80141268D01*
X164341871Y-80120614D01*
X164371928Y-80101344D01*
X164402952Y-80083506D01*
X164434896Y-80067145D01*
X164467712Y-80052310D01*
X164501354Y-80039045D01*
X164535776Y-80027398D01*
X164570932Y-80017415D01*
X164606774Y-80009142D01*
X164643256Y-80002627D01*
X164680331Y-79997916D01*
X164717954Y-79995055D01*
X164756077Y-79994091D01*
X164794200Y-79995055D01*
X131139203Y-91160470D02*
X131176826Y-91163331D01*
X131213902Y-91168042D01*
X131250384Y-91174557D01*
X131286226Y-91182830D01*
X131321381Y-91192813D01*
X131355804Y-91204460D01*
X131389446Y-91217725D01*
X131422262Y-91232561D01*
X131454206Y-91248921D01*
X131485229Y-91266760D01*
X131515287Y-91286029D01*
X131544333Y-91306684D01*
X131572319Y-91328677D01*
X131599200Y-91351962D01*
X131624928Y-91376492D01*
X131649458Y-91402221D01*
X131672743Y-91429101D01*
X131694736Y-91457088D01*
X131715391Y-91486133D01*
X131734660Y-91516191D01*
X131752499Y-91547215D01*
X131768859Y-91579158D01*
X131783695Y-91611975D01*
X131796959Y-91645617D01*
X131808607Y-91680039D01*
X131818589Y-91715194D01*
X131826862Y-91751036D01*
X131833377Y-91787518D01*
X131838088Y-91824594D01*
X131840949Y-91862216D01*
X131841913Y-91900340D01*
X131840949Y-91938463D01*
X131838088Y-91976085D01*
X131833377Y-92013161D01*
X131826862Y-92049643D01*
X131818589Y-92085485D01*
X131808607Y-92120641D01*
X131796959Y-92155063D01*
X131783695Y-92188706D01*
X131768859Y-92221522D01*
X131752499Y-92253465D01*
X131734660Y-92284489D01*
X131715391Y-92314547D01*
X131694736Y-92343593D01*
X131672743Y-92371579D01*
X131649458Y-92398460D01*
X131624928Y-92424189D01*
X131599200Y-92448719D01*
X131572319Y-92472004D01*
X131544333Y-92493997D01*
X131515287Y-92514651D01*
X131485229Y-92533921D01*
X131454206Y-92551760D01*
X131422262Y-92568120D01*
X131389446Y-92582956D01*
X131355804Y-92596221D01*
X131321381Y-92607868D01*
X131286226Y-92617851D01*
X131250384Y-92626124D01*
X131213902Y-92632639D01*
X131176826Y-92637350D01*
X131139203Y-92640211D01*
X131101079Y-92641175D01*
X131062956Y-92640211D01*
X131025333Y-92637350D01*
X130988257Y-92632639D01*
X130951775Y-92626124D01*
X130915933Y-92617851D01*
X130880778Y-92607868D01*
X130846355Y-92596221D01*
X130812713Y-92582956D01*
X130779897Y-92568120D01*
X130747953Y-92551760D01*
X130716930Y-92533921D01*
X130686872Y-92514651D01*
X130657826Y-92493997D01*
X130629840Y-92472004D01*
X130602959Y-92448719D01*
X130577230Y-92424189D01*
X130552701Y-92398460D01*
X130529416Y-92371579D01*
X130507423Y-92343593D01*
X130486768Y-92314547D01*
X130467499Y-92284489D01*
X130449660Y-92253465D01*
X130433300Y-92221522D01*
X130418464Y-92188706D01*
X130405200Y-92155063D01*
X130393552Y-92120641D01*
X130383569Y-92085485D01*
X130375297Y-92049643D01*
X130368782Y-92013161D01*
X130364071Y-91976085D01*
X130361210Y-91938463D01*
X130360246Y-91900340D01*
X130361210Y-91862216D01*
X130364071Y-91824594D01*
X130368782Y-91787518D01*
X130375297Y-91751036D01*
X130383569Y-91715194D01*
X130393552Y-91680039D01*
X130405200Y-91645617D01*
X130418464Y-91611975D01*
X130433300Y-91579158D01*
X130449660Y-91547215D01*
X130467499Y-91516191D01*
X130486768Y-91486133D01*
X130507423Y-91457088D01*
X130529416Y-91429101D01*
X130552701Y-91402221D01*
X130577230Y-91376492D01*
X130602959Y-91351962D01*
X130629840Y-91328677D01*
X130657826Y-91306684D01*
X130686872Y-91286029D01*
X130716930Y-91266760D01*
X130747953Y-91248921D01*
X130779897Y-91232561D01*
X130812713Y-91217725D01*
X130846355Y-91204460D01*
X130880778Y-91192813D01*
X130915933Y-91182830D01*
X130951775Y-91174557D01*
X130988257Y-91168042D01*
X131025333Y-91163331D01*
X131062956Y-91160470D01*
X131101079Y-91159506D01*
X131139203Y-91160470D01*
X164820659Y-124974216D02*
X164858282Y-124977077D01*
X164895358Y-124981788D01*
X164931840Y-124988303D01*
X164967682Y-124996575D01*
X165002837Y-125006558D01*
X165037259Y-125018206D01*
X165070902Y-125031470D01*
X165103718Y-125046306D01*
X165135661Y-125062667D01*
X165166685Y-125080505D01*
X165196743Y-125099775D01*
X165225788Y-125120430D01*
X165253774Y-125142423D01*
X165280655Y-125165708D01*
X165306384Y-125190238D01*
X165330914Y-125215967D01*
X165354198Y-125242848D01*
X165376191Y-125270834D01*
X165396846Y-125299880D01*
X165416116Y-125329938D01*
X165433954Y-125360962D01*
X165450314Y-125392905D01*
X165465150Y-125425722D01*
X165478415Y-125459364D01*
X165490062Y-125493787D01*
X165500045Y-125528942D01*
X165508317Y-125564784D01*
X165514832Y-125601267D01*
X165519544Y-125638343D01*
X165522404Y-125675965D01*
X165523368Y-125714089D01*
X165522404Y-125752212D01*
X165519544Y-125789834D01*
X165514832Y-125826910D01*
X165508317Y-125863392D01*
X165500045Y-125899234D01*
X165490062Y-125934389D01*
X165478415Y-125968811D01*
X165465150Y-126002454D01*
X165450314Y-126035270D01*
X165433954Y-126067213D01*
X165416116Y-126098237D01*
X165396846Y-126128295D01*
X165376191Y-126157340D01*
X165354198Y-126185327D01*
X165330914Y-126212208D01*
X165306384Y-126237936D01*
X165280655Y-126262466D01*
X165253774Y-126285751D01*
X165225788Y-126307744D01*
X165196743Y-126328399D01*
X165166685Y-126347669D01*
X165135661Y-126365507D01*
X165103718Y-126381868D01*
X165070902Y-126396704D01*
X165037259Y-126409968D01*
X165002837Y-126421616D01*
X164967682Y-126431599D01*
X164931840Y-126439871D01*
X164895358Y-126446386D01*
X164858282Y-126451097D01*
X164820659Y-126453958D01*
X164782536Y-126454922D01*
X164744413Y-126453958D01*
X164706790Y-126451097D01*
X164669714Y-126446386D01*
X164633232Y-126439871D01*
X164597390Y-126431599D01*
X164562234Y-126421616D01*
X164527812Y-126409968D01*
X164494170Y-126396704D01*
X164461354Y-126381868D01*
X164429410Y-126365507D01*
X164398387Y-126347669D01*
X164368329Y-126328399D01*
X164339283Y-126307744D01*
X164311297Y-126285751D01*
X164284416Y-126262466D01*
X164258687Y-126237936D01*
X164234157Y-126212208D01*
X164210873Y-126185327D01*
X164188880Y-126157340D01*
X164168225Y-126128295D01*
X164148955Y-126098237D01*
X164131117Y-126067213D01*
X164114757Y-126035270D01*
X164099921Y-126002454D01*
X164086656Y-125968811D01*
X164075009Y-125934389D01*
X164065026Y-125899234D01*
X164056754Y-125863392D01*
X164050239Y-125826910D01*
X164045528Y-125789834D01*
X164042667Y-125752212D01*
X164041703Y-125714089D01*
X164042667Y-125675965D01*
X164045528Y-125638343D01*
X164050239Y-125601267D01*
X164056754Y-125564784D01*
X164065026Y-125528942D01*
X164075009Y-125493787D01*
X164086656Y-125459364D01*
X164099921Y-125425722D01*
X164114757Y-125392905D01*
X164131117Y-125360962D01*
X164148955Y-125329938D01*
X164168225Y-125299880D01*
X164188880Y-125270834D01*
X164210873Y-125242848D01*
X164234157Y-125215967D01*
X164258687Y-125190238D01*
X164284416Y-125165708D01*
X164311297Y-125142423D01*
X164339283Y-125120430D01*
X164368329Y-125099775D01*
X164398387Y-125080505D01*
X164429410Y-125062667D01*
X164461354Y-125046306D01*
X164494170Y-125031470D01*
X164527812Y-125018206D01*
X164562234Y-125006558D01*
X164597390Y-124996575D01*
X164633232Y-124988303D01*
X164669714Y-124981788D01*
X164706790Y-124977077D01*
X164744413Y-124974216D01*
X164782536Y-124973252D01*
X164820659Y-124974216D01*
X153628785Y-91160470D02*
X153666407Y-91163331D01*
X153703483Y-91168042D01*
X153739965Y-91174557D01*
X153775807Y-91182830D01*
X153810962Y-91192813D01*
X153845384Y-91204460D01*
X153879027Y-91217725D01*
X153911843Y-91232561D01*
X153943786Y-91248921D01*
X153974810Y-91266760D01*
X154004868Y-91286029D01*
X154033913Y-91306684D01*
X154061900Y-91328677D01*
X154088780Y-91351962D01*
X154114509Y-91376492D01*
X154139039Y-91402221D01*
X154162324Y-91429101D01*
X154184317Y-91457088D01*
X154204972Y-91486133D01*
X154224241Y-91516191D01*
X154242080Y-91547215D01*
X154258440Y-91579158D01*
X154273276Y-91611975D01*
X154286541Y-91645617D01*
X154298188Y-91680039D01*
X154308171Y-91715194D01*
X154316444Y-91751036D01*
X154322959Y-91787518D01*
X154327670Y-91824594D01*
X154330531Y-91862216D01*
X154331495Y-91900340D01*
X154330531Y-91938463D01*
X154327670Y-91976085D01*
X154322959Y-92013161D01*
X154316444Y-92049643D01*
X154308171Y-92085485D01*
X154298188Y-92120641D01*
X154286541Y-92155063D01*
X154273276Y-92188706D01*
X154258440Y-92221522D01*
X154242080Y-92253465D01*
X154224241Y-92284489D01*
X154204972Y-92314547D01*
X154184317Y-92343593D01*
X154162324Y-92371579D01*
X154139039Y-92398460D01*
X154114509Y-92424189D01*
X154088780Y-92448719D01*
X154061900Y-92472004D01*
X154033913Y-92493997D01*
X154004868Y-92514651D01*
X153974810Y-92533921D01*
X153943786Y-92551760D01*
X153911843Y-92568120D01*
X153879027Y-92582956D01*
X153845384Y-92596221D01*
X153810962Y-92607868D01*
X153775807Y-92617851D01*
X153739965Y-92626124D01*
X153703483Y-92632639D01*
X153666407Y-92637350D01*
X153628785Y-92640211D01*
X153590662Y-92641175D01*
X153552538Y-92640211D01*
X153514916Y-92637350D01*
X153477840Y-92632639D01*
X153441358Y-92626124D01*
X153405516Y-92617851D01*
X153370360Y-92607868D01*
X153335938Y-92596221D01*
X153302295Y-92582956D01*
X153269479Y-92568120D01*
X153237536Y-92551760D01*
X153206512Y-92533921D01*
X153176454Y-92514651D01*
X153147408Y-92493997D01*
X153119422Y-92472004D01*
X153092541Y-92448719D01*
X153066812Y-92424189D01*
X153042282Y-92398460D01*
X153018997Y-92371579D01*
X152997004Y-92343593D01*
X152976350Y-92314547D01*
X152957080Y-92284489D01*
X152939241Y-92253465D01*
X152922881Y-92221522D01*
X152908045Y-92188706D01*
X152894780Y-92155063D01*
X152883133Y-92120641D01*
X152873150Y-92085485D01*
X152864878Y-92049643D01*
X152858362Y-92013161D01*
X152853651Y-91976085D01*
X152850790Y-91938463D01*
X152849826Y-91900340D01*
X152850790Y-91862216D01*
X152853651Y-91824594D01*
X152858362Y-91787518D01*
X152864878Y-91751036D01*
X152873150Y-91715194D01*
X152883133Y-91680039D01*
X152894780Y-91645617D01*
X152908045Y-91611975D01*
X152922881Y-91579158D01*
X152939241Y-91547215D01*
X152957080Y-91516191D01*
X152976350Y-91486133D01*
X152997004Y-91457088D01*
X153018997Y-91429101D01*
X153042282Y-91402221D01*
X153066812Y-91376492D01*
X153092541Y-91351962D01*
X153119422Y-91328677D01*
X153147408Y-91306684D01*
X153176454Y-91286029D01*
X153206512Y-91266760D01*
X153237536Y-91248921D01*
X153269479Y-91232561D01*
X153302295Y-91217725D01*
X153335938Y-91204460D01*
X153370360Y-91192813D01*
X153405516Y-91182830D01*
X153441358Y-91174557D01*
X153477840Y-91168042D01*
X153514916Y-91163331D01*
X153552538Y-91160470D01*
X153590662Y-91159506D01*
X153628785Y-91160470D01*
X142436909Y-102352344D02*
X142474532Y-102355205D01*
X142511608Y-102359916D01*
X142548090Y-102366431D01*
X142583933Y-102374703D01*
X142619088Y-102384686D01*
X142653510Y-102396333D01*
X142687153Y-102409598D01*
X142719969Y-102424434D01*
X142751912Y-102440794D01*
X142782936Y-102458632D01*
X142812994Y-102477902D01*
X142842039Y-102498557D01*
X142870026Y-102520549D01*
X142896906Y-102543834D01*
X142922635Y-102568364D01*
X142947165Y-102594093D01*
X142970450Y-102620973D01*
X142992443Y-102648960D01*
X143013097Y-102678005D01*
X143032367Y-102708063D01*
X143050205Y-102739087D01*
X143066565Y-102771030D01*
X143081401Y-102803846D01*
X143094666Y-102837489D01*
X143106313Y-102871911D01*
X143116296Y-102907067D01*
X143124568Y-102942909D01*
X143131083Y-102979391D01*
X143135795Y-103016467D01*
X143138655Y-103054090D01*
X143139619Y-103092213D01*
X143138655Y-103130336D01*
X143135795Y-103167959D01*
X143131083Y-103205035D01*
X143124568Y-103241517D01*
X143116296Y-103277360D01*
X143106313Y-103312515D01*
X143094666Y-103346937D01*
X143081401Y-103380580D01*
X143066565Y-103413396D01*
X143050205Y-103445339D01*
X143032367Y-103476363D01*
X143013097Y-103506421D01*
X142992443Y-103535466D01*
X142970450Y-103563453D01*
X142947165Y-103590333D01*
X142922635Y-103616062D01*
X142896906Y-103640592D01*
X142870026Y-103663877D01*
X142842039Y-103685870D01*
X142812994Y-103706524D01*
X142782936Y-103725794D01*
X142751912Y-103743632D01*
X142719969Y-103759993D01*
X142687153Y-103774828D01*
X142653510Y-103788093D01*
X142619088Y-103799740D01*
X142583933Y-103809723D01*
X142548090Y-103817995D01*
X142511608Y-103824510D01*
X142474532Y-103829222D01*
X142436909Y-103832082D01*
X142398786Y-103833046D01*
X142360663Y-103832082D01*
X142323040Y-103829222D01*
X142285964Y-103824510D01*
X142249482Y-103817995D01*
X142213640Y-103809723D01*
X142178484Y-103799740D01*
X142144062Y-103788093D01*
X142110419Y-103774828D01*
X142077603Y-103759993D01*
X142045660Y-103743632D01*
X142014636Y-103725794D01*
X141984578Y-103706524D01*
X141955533Y-103685870D01*
X141927546Y-103663877D01*
X141900666Y-103640592D01*
X141874937Y-103616062D01*
X141850407Y-103590333D01*
X141827122Y-103563453D01*
X141805130Y-103535466D01*
X141784475Y-103506421D01*
X141765205Y-103476363D01*
X141747367Y-103445339D01*
X141731007Y-103413396D01*
X141716171Y-103380580D01*
X141702906Y-103346937D01*
X141691259Y-103312515D01*
X141681276Y-103277360D01*
X141673004Y-103241517D01*
X141666489Y-103205035D01*
X141661778Y-103167959D01*
X141658917Y-103130336D01*
X141657953Y-103092213D01*
X141658917Y-103054090D01*
X141661778Y-103016467D01*
X141666489Y-102979391D01*
X141673004Y-102942909D01*
X141681276Y-102907067D01*
X141691259Y-102871911D01*
X141702906Y-102837489D01*
X141716171Y-102803846D01*
X141731007Y-102771030D01*
X141747367Y-102739087D01*
X141765205Y-102708063D01*
X141784475Y-102678005D01*
X141805130Y-102648960D01*
X141827122Y-102620973D01*
X141850407Y-102594093D01*
X141874937Y-102568364D01*
X141900666Y-102543834D01*
X141927546Y-102520549D01*
X141955533Y-102498557D01*
X141984578Y-102477902D01*
X142014636Y-102458632D01*
X142045660Y-102440794D01*
X142077603Y-102424434D01*
X142110419Y-102409598D01*
X142144062Y-102396333D01*
X142178484Y-102384686D01*
X142213640Y-102374703D01*
X142249482Y-102366431D01*
X142285964Y-102359916D01*
X142323040Y-102355205D01*
X142360663Y-102352344D01*
X142398786Y-102351380D01*
X142436909Y-102352344D01*
X153628785Y-113544219D02*
X153666407Y-113547080D01*
X153703483Y-113551791D01*
X153739965Y-113558306D01*
X153775807Y-113566579D01*
X153810962Y-113576561D01*
X153845384Y-113588209D01*
X153879027Y-113601473D01*
X153911843Y-113616309D01*
X153943786Y-113632669D01*
X153974810Y-113650508D01*
X154004868Y-113669777D01*
X154033913Y-113690432D01*
X154061900Y-113712425D01*
X154088780Y-113735710D01*
X154114509Y-113760240D01*
X154139039Y-113785968D01*
X154162324Y-113812849D01*
X154184317Y-113840835D01*
X154204972Y-113869881D01*
X154224241Y-113899939D01*
X154242080Y-113930962D01*
X154258440Y-113962906D01*
X154273276Y-113995722D01*
X154286541Y-114029364D01*
X154298188Y-114063787D01*
X154308171Y-114098942D01*
X154316444Y-114134784D01*
X154322959Y-114171266D01*
X154327670Y-114208342D01*
X154330531Y-114245965D01*
X154331495Y-114284089D01*
X154330531Y-114322212D01*
X154327670Y-114359835D01*
X154322959Y-114396911D01*
X154316444Y-114433393D01*
X154308171Y-114469235D01*
X154298188Y-114504390D01*
X154286541Y-114538813D01*
X154273276Y-114572455D01*
X154258440Y-114605271D01*
X154242080Y-114637215D01*
X154224241Y-114668238D01*
X154204972Y-114698296D01*
X154184317Y-114727342D01*
X154162324Y-114755328D01*
X154139039Y-114782209D01*
X154114509Y-114807938D01*
X154088780Y-114832467D01*
X154061900Y-114855752D01*
X154033913Y-114877745D01*
X154004868Y-114898400D01*
X153974810Y-114917669D01*
X153943786Y-114935508D01*
X153911843Y-114951868D01*
X153879027Y-114966704D01*
X153845384Y-114979968D01*
X153810962Y-114991616D01*
X153775807Y-115001599D01*
X153739965Y-115009871D01*
X153703483Y-115016386D01*
X153666407Y-115021097D01*
X153628785Y-115023958D01*
X153590662Y-115024922D01*
X153552538Y-115023958D01*
X153514916Y-115021097D01*
X153477840Y-115016386D01*
X153441358Y-115009871D01*
X153405516Y-115001599D01*
X153370360Y-114991616D01*
X153335938Y-114979968D01*
X153302295Y-114966704D01*
X153269479Y-114951868D01*
X153237536Y-114935508D01*
X153206512Y-114917669D01*
X153176454Y-114898400D01*
X153147408Y-114877745D01*
X153119422Y-114855752D01*
X153092541Y-114832467D01*
X153066812Y-114807938D01*
X153042282Y-114782209D01*
X153018997Y-114755328D01*
X152997004Y-114727342D01*
X152976350Y-114698296D01*
X152957080Y-114668238D01*
X152939241Y-114637215D01*
X152922881Y-114605271D01*
X152908045Y-114572455D01*
X152894780Y-114538813D01*
X152883133Y-114504390D01*
X152873150Y-114469235D01*
X152864878Y-114433393D01*
X152858362Y-114396911D01*
X152853651Y-114359835D01*
X152850790Y-114322212D01*
X152849826Y-114284089D01*
X152850790Y-114245965D01*
X152853651Y-114208342D01*
X152858362Y-114171266D01*
X152864878Y-114134784D01*
X152873150Y-114098942D01*
X152883133Y-114063787D01*
X152894780Y-114029364D01*
X152908045Y-113995722D01*
X152922881Y-113962906D01*
X152939241Y-113930962D01*
X152957080Y-113899939D01*
X152976350Y-113869881D01*
X152997004Y-113840835D01*
X153018997Y-113812849D01*
X153042282Y-113785968D01*
X153066812Y-113760240D01*
X153092541Y-113735710D01*
X153119422Y-113712425D01*
X153147408Y-113690432D01*
X153176454Y-113669777D01*
X153206512Y-113650508D01*
X153237536Y-113632669D01*
X153269479Y-113616309D01*
X153302295Y-113601473D01*
X153335938Y-113588209D01*
X153370360Y-113576561D01*
X153405516Y-113566579D01*
X153441358Y-113558306D01*
X153477840Y-113551791D01*
X153514916Y-113547080D01*
X153552538Y-113544219D01*
X153590662Y-113543255D01*
X153628785Y-113544219D01*
X142331078Y-79862764D02*
X142368701Y-79865624D01*
X142405777Y-79870336D01*
X142442259Y-79876851D01*
X142478101Y-79885123D01*
X142513257Y-79895106D01*
X142547679Y-79906753D01*
X142581322Y-79920018D01*
X142614138Y-79934854D01*
X142646081Y-79951214D01*
X142677105Y-79969052D01*
X142707163Y-79988322D01*
X142736208Y-80008977D01*
X142764195Y-80030970D01*
X142791075Y-80054254D01*
X142816804Y-80078784D01*
X142841334Y-80104513D01*
X142864619Y-80131394D01*
X142886611Y-80159380D01*
X142907266Y-80188425D01*
X142926536Y-80218483D01*
X142944374Y-80249507D01*
X142960734Y-80281450D01*
X142975570Y-80314266D01*
X142988835Y-80347909D01*
X143000482Y-80382331D01*
X143010465Y-80417486D01*
X143018737Y-80453328D01*
X143025252Y-80489810D01*
X143029963Y-80526886D01*
X143032824Y-80564509D01*
X143033788Y-80602632D01*
X143032824Y-80640755D01*
X143029963Y-80678378D01*
X143025252Y-80715454D01*
X143018737Y-80751936D01*
X143010465Y-80787778D01*
X143000482Y-80822934D01*
X142988835Y-80857356D01*
X142975570Y-80890998D01*
X142960734Y-80923814D01*
X142944374Y-80955758D01*
X142926536Y-80986781D01*
X142907266Y-81016839D01*
X142886611Y-81045885D01*
X142864619Y-81073871D01*
X142841334Y-81100752D01*
X142816804Y-81126481D01*
X142791075Y-81151011D01*
X142764195Y-81174295D01*
X142736208Y-81196288D01*
X142707163Y-81216943D01*
X142677105Y-81236213D01*
X142646081Y-81254051D01*
X142614138Y-81270411D01*
X142581322Y-81285247D01*
X142547679Y-81298512D01*
X142513257Y-81310159D01*
X142478101Y-81320142D01*
X142442259Y-81328414D01*
X142405777Y-81334929D01*
X142368701Y-81339640D01*
X142331078Y-81342501D01*
X142292955Y-81343465D01*
X142254832Y-81342501D01*
X142217209Y-81339640D01*
X142180133Y-81334929D01*
X142143651Y-81328414D01*
X142107808Y-81320142D01*
X142072653Y-81310159D01*
X142038231Y-81298512D01*
X142004588Y-81285247D01*
X141971772Y-81270411D01*
X141939829Y-81254051D01*
X141908805Y-81236213D01*
X141878747Y-81216943D01*
X141849702Y-81196288D01*
X141821715Y-81174295D01*
X141794835Y-81151011D01*
X141769106Y-81126481D01*
X141744576Y-81100752D01*
X141721291Y-81073871D01*
X141699298Y-81045885D01*
X141678644Y-81016839D01*
X141659374Y-80986781D01*
X141641536Y-80955758D01*
X141625175Y-80923814D01*
X141610340Y-80890998D01*
X141597075Y-80857356D01*
X141585428Y-80822934D01*
X141575445Y-80787778D01*
X141567173Y-80751936D01*
X141560658Y-80715454D01*
X141555946Y-80678378D01*
X141553086Y-80640755D01*
X141552122Y-80602632D01*
X141553086Y-80564509D01*
X141555946Y-80526886D01*
X141560658Y-80489810D01*
X141567173Y-80453328D01*
X141575445Y-80417486D01*
X141585428Y-80382331D01*
X141597075Y-80347909D01*
X141610340Y-80314266D01*
X141625175Y-80281450D01*
X141641536Y-80249507D01*
X141659374Y-80218483D01*
X141678644Y-80188425D01*
X141699298Y-80159380D01*
X141721291Y-80131394D01*
X141744576Y-80104513D01*
X141769106Y-80078784D01*
X141794835Y-80054254D01*
X141821715Y-80030970D01*
X141849702Y-80008977D01*
X141878747Y-79988322D01*
X141908805Y-79969052D01*
X141939829Y-79951214D01*
X141971772Y-79934854D01*
X142004588Y-79920018D01*
X142038231Y-79906753D01*
X142072653Y-79895106D01*
X142107808Y-79885123D01*
X142143651Y-79876851D01*
X142180133Y-79870336D01*
X142217209Y-79865624D01*
X142254832Y-79862764D01*
X142292955Y-79861800D01*
X142331078Y-79862764D01*
%TO.C,IC1*%
X124746602Y-103092214D02*
G75*
G02*
X122946602Y-103092214I-900000J0D01*
G01*
X122946602Y-103092214D02*
G75*
G02*
X124746602Y-103092214I900000J0D01*
G01*
X139146602Y-103092214D02*
G75*
G02*
X137346602Y-103092214I-900000J0D01*
G01*
X137346602Y-103092214D02*
G75*
G02*
X139146602Y-103092214I900000J0D01*
G01*
%TD*%
M02*
