M48
; DRILL file {KiCad 8.0.5-8.0.5-0~ubuntu24.04.1} date 2024-09-18T15:47:12+0300
; FORMAT={-:-/ absolute / inch / decimal}
; #@! TF.CreationDate,2024-09-18T15:47:12+03:00
; #@! TF.GenerationSoftware,Kicad,Pcbnew,8.0.5-8.0.5-0~ubuntu24.04.1
; #@! TF.FileFunction,Plated,1,2,PTH
FMAT,2
INCH
; #@! TA.AperFunction,Plated,PTH,ViaDrill
T1C0.0118
; #@! TA.AperFunction,Plated,PTH,ComponentDrill
T2C0.0394
%
G90
G05
T1
X4.7815Y-3.4209
X4.8764Y-3.5091
X5.0665Y-5.011
X5.073Y-4.8884
X5.0784Y-3.9662
X5.0898Y-3.7453
X5.0988Y-4.7728
X5.1102Y-3.9661
X5.1281Y-3.1362
X5.1382Y-3.2449
X5.1752Y-3.137
X5.1756Y-3.9654
X5.1759Y-2.9901
X5.2441Y-4.8441
X5.2598Y-4.7555
X5.2681Y-4.8933
X5.2689Y-5.0118
X5.2827Y-3.7417
X5.2913Y-4.7555
X5.3091Y-4.0744
X5.3091Y-4.1098
X5.3094Y-3.9459
X5.3161Y-4.8953
X5.3386Y-3.126
X5.5925Y-4.382
X5.8037Y-4.0522
X5.872Y-4.0796
X5.9988Y-4.0268
X6.0039Y-3.9732
X6.037Y-4.1276
X6.0378Y-4.382
X6.0437Y-4.7898
X6.0445Y-4.9756
X6.0717Y-4.0476
X6.0917Y-4.0796
X6.1937Y-5.0406
X6.1941Y-4.8264
X6.2275Y-3.7315
X6.2854Y-3.9776
X6.3051Y-4.0429
T2
X4.4378Y-3.8092
X4.4378Y-3.9092
X4.4378Y-4.0092
X4.4378Y-4.1092
X4.4378Y-4.2092
X4.4378Y-4.3092
X4.5378Y-3.8092
X4.5378Y-3.9092
X4.5378Y-4.0092
X4.5378Y-4.1092
X4.5378Y-4.2092
X4.5378Y-4.3092
X6.6676Y-3.8082
X6.6676Y-3.9082
X6.6676Y-4.0082
X6.6676Y-4.1082
X6.6676Y-4.2082
X6.6676Y-4.3082
X6.7676Y-3.8082
X6.7676Y-3.9082
X6.7676Y-4.0082
X6.7676Y-4.1082
X6.7676Y-4.2082
X6.7676Y-4.3082
M30
