%TF.GenerationSoftware,KiCad,Pcbnew,8.0.5-8.0.5-0~ubuntu24.04.1*%
%TF.CreationDate,2024-09-18T14:46:07+03:00*%
%TF.ProjectId,PMOD1,504d4f44-312e-46b6-9963-61645f706362,rev?*%
%TF.SameCoordinates,Original*%
%TF.FileFunction,Paste,Top*%
%TF.FilePolarity,Positive*%
%FSLAX46Y46*%
G04 Gerber Fmt 4.6, Leading zero omitted, Abs format (unit mm)*
G04 Created by KiCad (PCBNEW 8.0.5-8.0.5-0~ubuntu24.04.1) date 2024-09-18 14:46:07*
%MOMM*%
%LPD*%
G01*
G04 APERTURE LIST*
G04 Aperture macros list*
%AMRoundRect*
0 Rectangle with rounded corners*
0 $1 Rounding radius*
0 $2 $3 $4 $5 $6 $7 $8 $9 X,Y pos of 4 corners*
0 Add a 4 corners polygon primitive as box body*
4,1,4,$2,$3,$4,$5,$6,$7,$8,$9,$2,$3,0*
0 Add four circle primitives for the rounded corners*
1,1,$1+$1,$2,$3*
1,1,$1+$1,$4,$5*
1,1,$1+$1,$6,$7*
1,1,$1+$1,$8,$9*
0 Add four rect primitives between the rounded corners*
20,1,$1+$1,$2,$3,$4,$5,0*
20,1,$1+$1,$4,$5,$6,$7,0*
20,1,$1+$1,$6,$7,$8,$9,0*
20,1,$1+$1,$8,$9,$2,$3,0*%
%AMOutline5P*
0 Free polygon, 5 corners , with rotation*
0 The origin of the aperture is its center*
0 number of corners: always 5*
0 $1 to $10 corner X, Y*
0 $11 Rotation angle, in degrees counterclockwise*
0 create outline with 5 corners*
4,1,5,$1,$2,$3,$4,$5,$6,$7,$8,$9,$10,$1,$2,$11*%
%AMOutline6P*
0 Free polygon, 6 corners , with rotation*
0 The origin of the aperture is its center*
0 number of corners: always 6*
0 $1 to $12 corner X, Y*
0 $13 Rotation angle, in degrees counterclockwise*
0 create outline with 6 corners*
4,1,6,$1,$2,$3,$4,$5,$6,$7,$8,$9,$10,$11,$12,$1,$2,$13*%
%AMOutline7P*
0 Free polygon, 7 corners , with rotation*
0 The origin of the aperture is its center*
0 number of corners: always 7*
0 $1 to $14 corner X, Y*
0 $15 Rotation angle, in degrees counterclockwise*
0 create outline with 7 corners*
4,1,7,$1,$2,$3,$4,$5,$6,$7,$8,$9,$10,$11,$12,$13,$14,$1,$2,$15*%
%AMOutline8P*
0 Free polygon, 8 corners , with rotation*
0 The origin of the aperture is its center*
0 number of corners: always 8*
0 $1 to $16 corner X, Y*
0 $17 Rotation angle, in degrees counterclockwise*
0 create outline with 8 corners*
4,1,8,$1,$2,$3,$4,$5,$6,$7,$8,$9,$10,$11,$12,$13,$14,$15,$16,$1,$2,$17*%
G04 Aperture macros list end*
%ADD10C,0.010000*%
%ADD11R,0.350000X0.220000*%
%ADD12R,0.350000X0.600000*%
%ADD13R,0.250000X0.750000*%
%ADD14R,1.050000X0.500000*%
%ADD15R,0.350000X0.500000*%
%ADD16R,0.700000X0.400000*%
%ADD17R,0.488000X0.575000*%
%ADD18RoundRect,0.135000X0.185000X-0.135000X0.185000X0.135000X-0.185000X0.135000X-0.185000X-0.135000X0*%
%ADD19RoundRect,0.140000X-0.140000X-0.170000X0.140000X-0.170000X0.140000X0.170000X-0.140000X0.170000X0*%
%ADD20Outline5P,-0.150000X0.015000X-0.015000X0.150000X0.150000X0.150000X0.150000X-0.150000X-0.150000X-0.150000X90.000000*%
%ADD21R,0.300000X0.300000*%
%ADD22RoundRect,0.135000X0.135000X0.185000X-0.135000X0.185000X-0.135000X-0.185000X0.135000X-0.185000X0*%
%ADD23RoundRect,0.140000X0.140000X0.170000X-0.140000X0.170000X-0.140000X-0.170000X0.140000X-0.170000X0*%
%ADD24RoundRect,0.135000X-0.185000X0.135000X-0.185000X-0.135000X0.185000X-0.135000X0.185000X0.135000X0*%
%ADD25RoundRect,0.140000X0.170000X-0.140000X0.170000X0.140000X-0.170000X0.140000X-0.170000X-0.140000X0*%
%ADD26R,2.200000X2.200000*%
%ADD27R,1.250000X2.200000*%
%ADD28RoundRect,0.135000X-0.135000X-0.185000X0.135000X-0.185000X0.135000X0.185000X-0.135000X0.185000X0*%
G04 APERTURE END LIST*
D10*
%TO.C,A1*%
X132490602Y-77426500D02*
X132252602Y-77426500D01*
X132002602Y-77176500D01*
X132002602Y-76851500D01*
X132490602Y-76851500D01*
X132490602Y-77426500D01*
G36*
X132490602Y-77426500D02*
G01*
X132252602Y-77426500D01*
X132002602Y-77176500D01*
X132002602Y-76851500D01*
X132490602Y-76851500D01*
X132490602Y-77426500D01*
G37*
%TD*%
D11*
%TO.C,Q5*%
X154872568Y-127830000D03*
X154872568Y-128210000D03*
D12*
X155522568Y-128020000D03*
%TD*%
D11*
%TO.C,Q4*%
X154872568Y-123078655D03*
X154872568Y-123458655D03*
D12*
X155522568Y-123268655D03*
%TD*%
D13*
%TO.C,IC3*%
X150063651Y-104421638D03*
X150563651Y-104421638D03*
X151063651Y-104421638D03*
X151063651Y-102821638D03*
X150563651Y-102821638D03*
X150063651Y-102821638D03*
D14*
X150563651Y-103621638D03*
%TD*%
D13*
%TO.C,IC2*%
X155493647Y-104421638D03*
X155993647Y-104421638D03*
X156493647Y-104421638D03*
X156493647Y-102821638D03*
X155993647Y-102821638D03*
X155493647Y-102821638D03*
D14*
X155993647Y-103621638D03*
%TD*%
D15*
%TO.C,IC1*%
X133096602Y-102412214D03*
X132276602Y-102412214D03*
X131456602Y-102412214D03*
X130636602Y-102412214D03*
X129816602Y-102412214D03*
X128996602Y-102412214D03*
X128996602Y-103772214D03*
X129816602Y-103772214D03*
X130636602Y-103772214D03*
X131456602Y-103772214D03*
X132276602Y-103772214D03*
X133096602Y-103772214D03*
%TD*%
D16*
%TO.C,D4*%
X166247637Y-106500000D03*
X166247637Y-107200000D03*
%TD*%
%TO.C,D3*%
X166247637Y-99690000D03*
X166247637Y-98990000D03*
%TD*%
%TO.C,D2*%
X118311810Y-106500000D03*
X118311810Y-107200000D03*
%TD*%
%TO.C,D1*%
X118311810Y-99690000D03*
X118311810Y-98990000D03*
%TD*%
D17*
%TO.C,A1*%
X131446602Y-77139000D03*
X130646602Y-77139000D03*
X129846602Y-77139000D03*
X132246602Y-78415000D03*
X131446602Y-78415000D03*
X130646602Y-78415000D03*
X129846602Y-78415000D03*
%TD*%
D18*
%TO.C,Rext1*%
X135020000Y-126340000D03*
X135020000Y-125320000D03*
%TD*%
D19*
%TO.C,C1*%
X133495000Y-77234500D03*
X134455000Y-77234500D03*
%TD*%
D20*
%TO.C,U1*%
X132596703Y-125095750D03*
D21*
X132596703Y-125595750D03*
X132596703Y-126095750D03*
X132596703Y-126595750D03*
X131771703Y-126895750D03*
X131271703Y-126895750D03*
X130771703Y-126895750D03*
X130271703Y-126895750D03*
X129446703Y-126595750D03*
X129446703Y-126095750D03*
X129446703Y-125595750D03*
X129446703Y-125095750D03*
X130271703Y-124795750D03*
X130771703Y-124795750D03*
X131271703Y-124795750D03*
X131771703Y-124795750D03*
%TD*%
D22*
%TO.C,R4*%
X156503647Y-106800024D03*
X155483647Y-106800024D03*
%TD*%
D23*
%TO.C,C_VDDV1*%
X132970000Y-107790000D03*
X132010000Y-107790000D03*
%TD*%
D18*
%TO.C,R2*%
X152350000Y-104120000D03*
X152350000Y-103100000D03*
%TD*%
%TO.C,R5*%
X157769651Y-104131638D03*
X157769651Y-103111638D03*
%TD*%
D24*
%TO.C,R9*%
X131860000Y-122390000D03*
X131860000Y-123410000D03*
%TD*%
D23*
%TO.C,C_VDDC1*%
X133130000Y-98390000D03*
X132170000Y-98390000D03*
%TD*%
D25*
%TO.C,C4*%
X128200000Y-126325750D03*
X128200000Y-125365750D03*
%TD*%
%TO.C,C7*%
X155513647Y-101517798D03*
X155513647Y-100557798D03*
%TD*%
D26*
%TO.C,D5*%
X131946602Y-85740000D03*
D27*
X129671602Y-85740000D03*
%TD*%
D25*
%TO.C,C2*%
X135525000Y-78257000D03*
X135525000Y-77297000D03*
%TD*%
D19*
%TO.C,C6*%
X155513647Y-105740024D03*
X156473647Y-105740024D03*
%TD*%
D22*
%TO.C,R7*%
X134485000Y-78309500D03*
X133465000Y-78309500D03*
%TD*%
%TO.C,R1*%
X151073651Y-106800024D03*
X150053651Y-106800024D03*
%TD*%
D23*
%TO.C,C_VDD1*%
X130070000Y-107790000D03*
X129110000Y-107790000D03*
%TD*%
D25*
%TO.C,C9*%
X150063651Y-101517798D03*
X150063651Y-100557798D03*
%TD*%
D28*
%TO.C,R13*%
X130511703Y-128120000D03*
X131531703Y-128120000D03*
%TD*%
D25*
%TO.C,C3*%
X129550000Y-123380000D03*
X129550000Y-122420000D03*
%TD*%
D24*
%TO.C,R8*%
X130700000Y-122390000D03*
X130700000Y-123410000D03*
%TD*%
%TO.C,R3*%
X153542568Y-122758655D03*
X153542568Y-123778655D03*
%TD*%
D25*
%TO.C,C5*%
X156529647Y-101517798D03*
X156529647Y-100557798D03*
%TD*%
D19*
%TO.C,C8*%
X150083651Y-105740024D03*
X151043651Y-105740024D03*
%TD*%
D25*
%TO.C,C10*%
X133820000Y-126320000D03*
X133820000Y-125360000D03*
%TD*%
D24*
%TO.C,R14*%
X153540000Y-127510000D03*
X153540000Y-128530000D03*
%TD*%
D18*
%TO.C,R6*%
X134100000Y-86250000D03*
X134100000Y-85230000D03*
%TD*%
D25*
%TO.C,C11*%
X151080000Y-101517798D03*
X151080000Y-100557798D03*
%TD*%
M02*
