%TF.GenerationSoftware,KiCad,Pcbnew,8.0.5-8.0.5-0~ubuntu24.04.1*%
%TF.CreationDate,2024-09-18T15:47:18+03:00*%
%TF.ProjectId,PMOD1,504d4f44-312e-46b6-9963-61645f706362,rev?*%
%TF.SameCoordinates,Original*%
%TF.FileFunction,Copper,L2,Bot*%
%TF.FilePolarity,Positive*%
%FSLAX46Y46*%
G04 Gerber Fmt 4.6, Leading zero omitted, Abs format (unit mm)*
G04 Created by KiCad (PCBNEW 8.0.5-8.0.5-0~ubuntu24.04.1) date 2024-09-18 15:47:18*
%MOMM*%
%LPD*%
G01*
G04 APERTURE LIST*
G04 Aperture macros list*
%AMFreePoly0*
4,1,13,0.835355,0.835355,0.850000,0.800000,0.850000,-0.800000,0.835355,-0.835355,0.800000,-0.850000,-0.800000,-0.850000,-0.835355,-0.835355,-0.850000,-0.800000,-0.850000,0.800000,-0.835355,0.835355,-0.800000,0.850000,0.800000,0.850000,0.835355,0.835355,0.835355,0.835355,$1*%
%AMFreePoly1*
4,1,17,0.366726,0.835355,0.835355,0.366726,0.850000,0.331371,0.850000,-0.331371,0.835355,-0.366726,0.366726,-0.835355,0.331371,-0.850000,-0.331371,-0.850000,-0.366726,-0.835355,-0.835355,-0.366726,-0.850000,-0.331371,-0.850000,0.331371,-0.835355,0.366726,-0.366726,0.835355,-0.331371,0.850000,0.331371,0.850000,0.366726,0.835355,0.366726,0.835355,$1*%
G04 Aperture macros list end*
%TA.AperFunction,ComponentPad*%
%ADD10FreePoly0,180.000000*%
%TD*%
%TA.AperFunction,ComponentPad*%
%ADD11FreePoly1,180.000000*%
%TD*%
%TA.AperFunction,ComponentPad*%
%ADD12FreePoly0,0.000000*%
%TD*%
%TA.AperFunction,ComponentPad*%
%ADD13FreePoly1,0.000000*%
%TD*%
%TA.AperFunction,ViaPad*%
%ADD14C,0.600000*%
%TD*%
%TA.AperFunction,Conductor*%
%ADD15C,0.300000*%
%TD*%
%TA.AperFunction,Conductor*%
%ADD16C,0.600000*%
%TD*%
%TA.AperFunction,Conductor*%
%ADD17C,0.200000*%
%TD*%
%TA.AperFunction,Conductor*%
%ADD18C,0.250000*%
%TD*%
G04 APERTURE END LIST*
D10*
%TO.P,PMOD1,1,INT*%
%TO.N,IRQ#*%
X169356000Y-109428998D03*
D11*
%TO.P,PMOD1,2,RST*%
%TO.N,RES#*%
X169356000Y-106888998D03*
%TO.P,PMOD1,3,SCL*%
%TO.N,SCL*%
X169356000Y-104348998D03*
%TO.P,PMOD1,4,SDA*%
%TO.N,SDA*%
X169356000Y-101808998D03*
%TO.P,PMOD1,5,GND*%
%TO.N,GND*%
X169356000Y-99268998D03*
%TO.P,PMOD1,6,VCC*%
%TO.N,VCC*%
X169356000Y-96728998D03*
%TO.P,PMOD1,7,INT*%
%TO.N,INT*%
X171896000Y-109428998D03*
%TO.P,PMOD1,8,RST*%
%TO.N,EN*%
X171896000Y-106888998D03*
%TO.P,PMOD1,9,CS2*%
%TO.N,CS2*%
X171896000Y-104348998D03*
%TO.P,PMOD1,10,CS3*%
%TO.N,CS3*%
X171896000Y-101808998D03*
%TO.P,PMOD1,11,GND*%
%TO.N,GND*%
X171896000Y-99268998D03*
%TO.P,PMOD1,12,VCC*%
%TO.N,VCC*%
X171896000Y-96728998D03*
%TD*%
D12*
%TO.P,PMOD2,1,INT*%
%TO.N,IRQ#*%
X115260000Y-109453998D03*
D13*
%TO.P,PMOD2,2,RST*%
%TO.N,RES#*%
X115260000Y-106913998D03*
%TO.P,PMOD2,3,SCL*%
%TO.N,SCL*%
X115260000Y-104373998D03*
%TO.P,PMOD2,4,SDA*%
%TO.N,SDA*%
X115260000Y-101833998D03*
%TO.P,PMOD2,5,GND*%
%TO.N,GND*%
X115260000Y-99293998D03*
%TO.P,PMOD2,6,VCC*%
%TO.N,VCC*%
X115260000Y-96753998D03*
%TO.P,PMOD2,7,INT*%
%TO.N,INT*%
X112720000Y-109453998D03*
%TO.P,PMOD2,8,RST*%
%TO.N,EN*%
X112720000Y-106913998D03*
%TO.P,PMOD2,9,CS2*%
%TO.N,CS2*%
X112720000Y-104373998D03*
%TO.P,PMOD2,10,CS3*%
%TO.N,CS3*%
X112720000Y-101833998D03*
%TO.P,PMOD2,11,GND*%
%TO.N,GND*%
X112720000Y-99293998D03*
%TO.P,PMOD2,12,VCC*%
%TO.N,VCC*%
X112720000Y-96753998D03*
%TD*%
D14*
%TO.N,SCL*%
X157320000Y-128030000D03*
X157330000Y-122590000D03*
%TO.N,+1V8*%
X158179651Y-94780000D03*
X152370002Y-102280002D03*
X159650000Y-101030000D03*
X135600000Y-79400010D03*
%TO.N,GND*%
X154730000Y-103621638D03*
X160150000Y-102690000D03*
X149149998Y-103621638D03*
%TO.N,GNDA*%
X152500000Y-100920000D03*
X142050000Y-111303998D03*
X147415001Y-102925001D03*
X135030000Y-124340000D03*
%TO.N,VDDA*%
X153340000Y-104840000D03*
X154220000Y-102810000D03*
X153360000Y-111304004D03*
X133830380Y-127300000D03*
%TO.N,SDA_3V3*%
X128855000Y-124165000D03*
X130510000Y-82420000D03*
X129280000Y-95130000D03*
X133200000Y-123040000D03*
X128990254Y-100740247D03*
X133599997Y-120789997D03*
X131460000Y-100720000D03*
X134850000Y-104390000D03*
%TO.N,SCL_3V3*%
X134850000Y-103490000D03*
X134180000Y-95040000D03*
X133810000Y-124290000D03*
X134860000Y-100226500D03*
X134400000Y-120790000D03*
X131467961Y-75947961D03*
X129799989Y-100739721D03*
%TO.N,Net-(A1-GPIO)*%
X130254968Y-79659675D03*
X121450000Y-86890000D03*
%TO.N,+3V3*%
X129510000Y-121230000D03*
X153530000Y-126380000D03*
X128690000Y-127280000D03*
X153510000Y-121660000D03*
%TO.N,Net-(A1-INT)*%
X131450000Y-79680000D03*
X123860000Y-89130000D03*
%TD*%
D15*
%TO.N,IRQ#*%
X115260000Y-109453998D02*
X169331000Y-109453998D01*
D16*
%TO.N,VCC*%
X112720000Y-96753998D02*
X115260000Y-96753998D01*
X171896000Y-96728998D02*
X169356000Y-96728998D01*
X168531000Y-95903998D02*
X169356000Y-96728998D01*
X115260000Y-96753998D02*
X116110000Y-95903998D01*
X116110000Y-95903998D02*
X168531000Y-95903998D01*
D15*
%TO.N,RES#*%
X115586002Y-107240000D02*
X169004998Y-107240000D01*
%TO.N,EN*%
X112720000Y-106913998D02*
X113920000Y-108113998D01*
X170671000Y-108113998D02*
X171896000Y-106888998D01*
X113920000Y-108113998D02*
X170671000Y-108113998D01*
%TO.N,CS2*%
X115888896Y-105710000D02*
X114056002Y-105710000D01*
X170634998Y-105610000D02*
X168802105Y-105610000D01*
X114056002Y-105710000D02*
X112720000Y-104373998D01*
X116548896Y-106370000D02*
X115888896Y-105710000D01*
X171896000Y-104348998D02*
X170634998Y-105610000D01*
X168042105Y-106370000D02*
X116548896Y-106370000D01*
X168802105Y-105610000D02*
X168042105Y-106370000D01*
%TO.N,SCL*%
X168401002Y-104348998D02*
X169356000Y-104348998D01*
D17*
X157320000Y-128030000D02*
X157320000Y-122600000D01*
D15*
X167260000Y-105490000D02*
X168401002Y-104348998D01*
X117160000Y-105490000D02*
X167260000Y-105490000D01*
X116043998Y-104373998D02*
X117160000Y-105490000D01*
X115260000Y-104373998D02*
X116043998Y-104373998D01*
D17*
X157320000Y-122600000D02*
X157330000Y-122590000D01*
D15*
%TO.N,SDA*%
X166077002Y-98530000D02*
X169356000Y-101808998D01*
X115260000Y-101833998D02*
X118563998Y-98530000D01*
X118563998Y-98530000D02*
X166077002Y-98530000D01*
%TO.N,+1V8*%
X158200000Y-94759651D02*
X158179651Y-94780000D01*
D18*
X159650000Y-101030000D02*
X153620004Y-101030000D01*
D15*
X150900000Y-83600000D02*
X158200000Y-90900000D01*
X139799990Y-83600000D02*
X150900000Y-83600000D01*
X135600000Y-79400010D02*
X139799990Y-83600000D01*
D18*
X153620004Y-101030000D02*
X152370002Y-102280002D01*
D15*
X158200000Y-90900000D02*
X158200000Y-94759651D01*
%TO.N,INT*%
X170671000Y-110653998D02*
X171896000Y-109428998D01*
X113920000Y-110653998D02*
X170671000Y-110653998D01*
X112720000Y-109453998D02*
X113920000Y-110653998D01*
D16*
%TO.N,GND*%
X167357002Y-97270000D02*
X117283998Y-97270000D01*
D18*
X154730000Y-103621638D02*
X155130000Y-103221638D01*
X159210000Y-101750000D02*
X160150000Y-102690000D01*
X154120000Y-101750000D02*
X152248362Y-103621638D01*
D16*
X169356000Y-99268998D02*
X167357002Y-97270000D01*
X117283998Y-97270000D02*
X115260000Y-99293998D01*
X112720000Y-99293998D02*
X115260000Y-99293998D01*
D18*
X154780000Y-101750000D02*
X154120000Y-101750000D01*
X155130000Y-103221638D02*
X155130000Y-101750000D01*
X154780000Y-101750000D02*
X159210000Y-101750000D01*
D16*
X171896000Y-99268998D02*
X169356000Y-99268998D01*
D18*
X152248362Y-103621638D02*
X149149998Y-103621638D01*
X155130000Y-101750000D02*
X154780000Y-101750000D01*
D15*
%TO.N,GNDA*%
X149420002Y-100920000D02*
X147415001Y-102925001D01*
X135030000Y-124340000D02*
X142050000Y-117320000D01*
X152500000Y-100920000D02*
X149420002Y-100920000D01*
X142050000Y-117320000D02*
X142050000Y-111303998D01*
%TO.N,VDDA*%
X153340000Y-104840000D02*
X153340000Y-103690000D01*
X133830380Y-127300000D02*
X149826382Y-111303998D01*
X149826382Y-111303998D02*
X153359994Y-111303998D01*
X153340000Y-103690000D02*
X154220000Y-102810000D01*
X153359994Y-111303998D02*
X153360000Y-111304004D01*
%TO.N,CS3*%
X113920000Y-103033998D02*
X112720000Y-101833998D01*
X165160000Y-99490000D02*
X119500000Y-99490000D01*
X171896000Y-101808998D02*
X170696000Y-103008998D01*
X119500000Y-99490000D02*
X115956002Y-103033998D01*
X115956002Y-103033998D02*
X113920000Y-103033998D01*
X168678998Y-103008998D02*
X165160000Y-99490000D01*
X170696000Y-103008998D02*
X168678998Y-103008998D01*
%TO.N,SDA_3V3*%
X128150000Y-84780000D02*
X130510000Y-82420000D01*
D17*
X131570000Y-103790000D02*
X128990254Y-101210254D01*
X134250000Y-103790000D02*
X131570000Y-103790000D01*
D15*
X131460000Y-100720000D02*
X130870000Y-100130000D01*
X128150000Y-94000000D02*
X128150000Y-84780000D01*
D17*
X129980000Y-123040000D02*
X133200000Y-123040000D01*
D15*
X129380000Y-100130000D02*
X128990254Y-100519746D01*
D17*
X128855000Y-124165000D02*
X129980000Y-123040000D01*
X134850000Y-104390000D02*
X134250000Y-103790000D01*
D15*
X129280000Y-95130000D02*
X128150000Y-94000000D01*
X130870000Y-100130000D02*
X129380000Y-100130000D01*
D17*
X133599997Y-122640003D02*
X133200000Y-123040000D01*
X128990254Y-101210254D02*
X128990254Y-100740247D01*
X133599997Y-120789997D02*
X133599997Y-122640003D01*
D15*
X128990254Y-100519746D02*
X128990254Y-100740247D01*
D17*
%TO.N,SCL_3V3*%
X133950000Y-102590000D02*
X131650268Y-102590000D01*
X134850000Y-100236500D02*
X134850000Y-103490000D01*
X131650268Y-102590000D02*
X129799989Y-100739721D01*
X134400000Y-123700000D02*
X133810000Y-124290000D01*
X134180000Y-95040000D02*
X134180000Y-78660000D01*
X134400000Y-120790000D02*
X134400000Y-123700000D01*
X134180000Y-78660000D02*
X131467961Y-75947961D01*
X134850000Y-103490000D02*
X133950000Y-102590000D01*
X134860000Y-100226500D02*
X134850000Y-100236500D01*
%TO.N,Net-(A1-GPIO)*%
X130254968Y-79659675D02*
X128680325Y-79659675D01*
X128680325Y-79659675D02*
X121450000Y-86890000D01*
D15*
%TO.N,+3V3*%
X128170000Y-126760000D02*
X128170000Y-122570000D01*
D17*
X153530000Y-126380000D02*
X153530000Y-121680000D01*
D15*
X128690000Y-127280000D02*
X128170000Y-126760000D01*
X128170000Y-122570000D02*
X129510000Y-121230000D01*
D17*
X153530000Y-121680000D02*
X153510000Y-121660000D01*
%TO.N,Net-(A1-INT)*%
X123860000Y-87270000D02*
X123860000Y-89130000D01*
X131450000Y-79680000D02*
X123860000Y-87270000D01*
%TD*%
%TA.AperFunction,Conductor*%
%TO.N,GND*%
G36*
X160288617Y-102404352D02*
G01*
X160435648Y-102551383D01*
X160450000Y-102586031D01*
X160450000Y-102793969D01*
X160435648Y-102828617D01*
X160288617Y-102975648D01*
X160253969Y-102990000D01*
X160046031Y-102990000D01*
X160011383Y-102975648D01*
X159864352Y-102828617D01*
X159850000Y-102793969D01*
X159850000Y-102439000D01*
X159864352Y-102404352D01*
X159899000Y-102390000D01*
X160253969Y-102390000D01*
X160288617Y-102404352D01*
G37*
%TD.AperFunction*%
%TD*%
%TA.AperFunction,Conductor*%
%TO.N,SDA_3V3*%
G36*
X129128871Y-100454599D02*
G01*
X129275902Y-100601630D01*
X129290254Y-100636278D01*
X129290254Y-100844216D01*
X129275902Y-100878864D01*
X129024902Y-101129864D01*
X128990254Y-101144216D01*
X128955606Y-101129864D01*
X128704606Y-100878864D01*
X128690254Y-100844216D01*
X128690254Y-100636278D01*
X128704606Y-100601630D01*
X128851637Y-100454599D01*
X128886285Y-100440247D01*
X129094223Y-100440247D01*
X129128871Y-100454599D01*
G37*
%TD.AperFunction*%
%TD*%
%TA.AperFunction,Conductor*%
%TO.N,SDA_3V3*%
G36*
X133738614Y-120504349D02*
G01*
X133885645Y-120651380D01*
X133899997Y-120686028D01*
X133899997Y-120742682D01*
X133899965Y-120744445D01*
X133899764Y-120750027D01*
X133899675Y-120751702D01*
X133899624Y-120752427D01*
X133899246Y-120755962D01*
X133894353Y-120789997D01*
X133894353Y-120790002D01*
X133899247Y-120824041D01*
X133899621Y-120827523D01*
X133899670Y-120828209D01*
X133899763Y-120829940D01*
X133899965Y-120835559D01*
X133899997Y-120837319D01*
X133899997Y-120887274D01*
X133899944Y-120889391D01*
X133899997Y-120891082D01*
X133899997Y-120893966D01*
X133885645Y-120928614D01*
X133634645Y-121179614D01*
X133599997Y-121193966D01*
X133565349Y-121179614D01*
X133314349Y-120928614D01*
X133299997Y-120893966D01*
X133299997Y-120686028D01*
X133314349Y-120651380D01*
X133461380Y-120504349D01*
X133496028Y-120489997D01*
X133703966Y-120489997D01*
X133738614Y-120504349D01*
G37*
%TD.AperFunction*%
%TD*%
%TA.AperFunction,Conductor*%
%TO.N,GNDA*%
G36*
X142189117Y-111018850D02*
G01*
X142335648Y-111165381D01*
X142350000Y-111200029D01*
X142350000Y-111407967D01*
X142335648Y-111442615D01*
X142084648Y-111693615D01*
X142050000Y-111707967D01*
X142015352Y-111693615D01*
X141764352Y-111442615D01*
X141750000Y-111407967D01*
X141750000Y-111200029D01*
X141764352Y-111165381D01*
X141910883Y-111018850D01*
X141945531Y-111004498D01*
X142154469Y-111004498D01*
X142189117Y-111018850D01*
G37*
%TD.AperFunction*%
%TD*%
%TA.AperFunction,Conductor*%
%TO.N,IRQ#*%
G36*
X169722434Y-108593350D02*
G01*
X170191648Y-109062564D01*
X170206000Y-109097212D01*
X170206000Y-109760784D01*
X170191648Y-109795432D01*
X169722434Y-110264646D01*
X169687786Y-110278998D01*
X169024214Y-110278998D01*
X168989566Y-110264646D01*
X168188566Y-109463646D01*
X168174214Y-109428998D01*
X168188566Y-109394350D01*
X168989566Y-108593350D01*
X169024214Y-108578998D01*
X169687786Y-108578998D01*
X169722434Y-108593350D01*
G37*
%TD.AperFunction*%
%TD*%
%TA.AperFunction,Conductor*%
%TO.N,SDA_3V3*%
G36*
X134988617Y-104104352D02*
G01*
X135135648Y-104251383D01*
X135150000Y-104286031D01*
X135150000Y-104493969D01*
X135135648Y-104528617D01*
X134988617Y-104675648D01*
X134953969Y-104690000D01*
X134746031Y-104690000D01*
X134711383Y-104675648D01*
X134564352Y-104528617D01*
X134550000Y-104493969D01*
X134550000Y-104139000D01*
X134564352Y-104104352D01*
X134599000Y-104090000D01*
X134953969Y-104090000D01*
X134988617Y-104104352D01*
G37*
%TD.AperFunction*%
%TD*%
%TA.AperFunction,Conductor*%
%TO.N,SDA_3V3*%
G36*
X129128871Y-100454599D02*
G01*
X129275902Y-100601630D01*
X129290254Y-100636278D01*
X129290254Y-100844216D01*
X129275902Y-100878864D01*
X129024902Y-101129864D01*
X128990254Y-101144216D01*
X128955606Y-101129864D01*
X128704606Y-100878864D01*
X128690254Y-100844216D01*
X128690254Y-100636278D01*
X128704606Y-100601630D01*
X128851637Y-100454599D01*
X128886285Y-100440247D01*
X129094223Y-100440247D01*
X129128871Y-100454599D01*
G37*
%TD.AperFunction*%
%TD*%
%TA.AperFunction,Conductor*%
%TO.N,+3V3*%
G36*
X153648617Y-121374352D02*
G01*
X153795648Y-121521383D01*
X153810000Y-121556031D01*
X153810000Y-121763969D01*
X153795648Y-121798617D01*
X153544648Y-122049617D01*
X153510000Y-122063969D01*
X153475352Y-122049617D01*
X153224352Y-121798617D01*
X153210000Y-121763969D01*
X153210000Y-121556031D01*
X153224352Y-121521383D01*
X153371383Y-121374352D01*
X153406031Y-121360000D01*
X153613969Y-121360000D01*
X153648617Y-121374352D01*
G37*
%TD.AperFunction*%
%TD*%
%TA.AperFunction,Conductor*%
%TO.N,GND*%
G36*
X160288617Y-102404352D02*
G01*
X160435648Y-102551383D01*
X160450000Y-102586031D01*
X160450000Y-102793969D01*
X160435648Y-102828617D01*
X160288617Y-102975648D01*
X160253969Y-102990000D01*
X160046031Y-102990000D01*
X160011383Y-102975648D01*
X159864352Y-102828617D01*
X159850000Y-102793969D01*
X159850000Y-102439000D01*
X159864352Y-102404352D01*
X159899000Y-102390000D01*
X160253969Y-102390000D01*
X160288617Y-102404352D01*
G37*
%TD.AperFunction*%
%TD*%
%TA.AperFunction,Conductor*%
%TO.N,SCL*%
G36*
X157354648Y-127640383D02*
G01*
X157605648Y-127891383D01*
X157620000Y-127926031D01*
X157620000Y-128133969D01*
X157605648Y-128168617D01*
X157458617Y-128315648D01*
X157423969Y-128330000D01*
X157216031Y-128330000D01*
X157181383Y-128315648D01*
X157034352Y-128168617D01*
X157020000Y-128133969D01*
X157020000Y-127926031D01*
X157034352Y-127891383D01*
X157285352Y-127640383D01*
X157320000Y-127626031D01*
X157354648Y-127640383D01*
G37*
%TD.AperFunction*%
%TD*%
%TA.AperFunction,Conductor*%
%TO.N,GND*%
G36*
X169722434Y-98433350D02*
G01*
X170523434Y-99234350D01*
X170537786Y-99268998D01*
X170523434Y-99303646D01*
X169722434Y-100104646D01*
X169687786Y-100118998D01*
X169024214Y-100118998D01*
X168989566Y-100104646D01*
X168520352Y-99635432D01*
X168506000Y-99600784D01*
X168506000Y-98467998D01*
X168520352Y-98433350D01*
X168555000Y-98418998D01*
X169687786Y-98418998D01*
X169722434Y-98433350D01*
G37*
%TD.AperFunction*%
%TD*%
%TA.AperFunction,Conductor*%
%TO.N,VCC*%
G36*
X169390648Y-95561564D02*
G01*
X170523434Y-96694350D01*
X170537786Y-96728998D01*
X170523434Y-96763646D01*
X169722434Y-97564646D01*
X169687786Y-97578998D01*
X169024214Y-97578998D01*
X168989566Y-97564646D01*
X168520352Y-97095432D01*
X168506000Y-97060784D01*
X168506000Y-95927998D01*
X168520352Y-95893350D01*
X168555000Y-95878998D01*
X169003917Y-95878998D01*
X169003918Y-95878998D01*
X169321352Y-95561564D01*
X169356000Y-95547212D01*
X169390648Y-95561564D01*
G37*
%TD.AperFunction*%
%TD*%
%TA.AperFunction,Conductor*%
%TO.N,GNDA*%
G36*
X142189117Y-111018850D02*
G01*
X142335648Y-111165381D01*
X142350000Y-111200029D01*
X142350000Y-111407967D01*
X142335648Y-111442615D01*
X142084648Y-111693615D01*
X142050000Y-111707967D01*
X142015352Y-111693615D01*
X141764352Y-111442615D01*
X141750000Y-111407967D01*
X141750000Y-111200029D01*
X141764352Y-111165381D01*
X141910883Y-111018850D01*
X141945531Y-111004498D01*
X142154469Y-111004498D01*
X142189117Y-111018850D01*
G37*
%TD.AperFunction*%
%TD*%
%TA.AperFunction,Conductor*%
%TO.N,VDDA*%
G36*
X153499111Y-111018850D02*
G01*
X153645648Y-111165387D01*
X153660000Y-111200035D01*
X153660000Y-111407973D01*
X153645648Y-111442621D01*
X153498617Y-111589652D01*
X153463969Y-111604004D01*
X153256031Y-111604004D01*
X153221383Y-111589652D01*
X152970383Y-111338652D01*
X152956031Y-111304004D01*
X152970383Y-111269356D01*
X153220889Y-111018850D01*
X153255537Y-111004498D01*
X153464463Y-111004498D01*
X153499111Y-111018850D01*
G37*
%TD.AperFunction*%
%TD*%
%TA.AperFunction,Conductor*%
%TO.N,SDA_3V3*%
G36*
X129128871Y-100454599D02*
G01*
X129275902Y-100601630D01*
X129290254Y-100636278D01*
X129290254Y-100844216D01*
X129275902Y-100878864D01*
X129024902Y-101129864D01*
X128990254Y-101144216D01*
X128955606Y-101129864D01*
X128704606Y-100878864D01*
X128690254Y-100844216D01*
X128690254Y-100636278D01*
X128704606Y-100601630D01*
X128851637Y-100454599D01*
X128886285Y-100440247D01*
X129094223Y-100440247D01*
X129128871Y-100454599D01*
G37*
%TD.AperFunction*%
%TD*%
%TA.AperFunction,Conductor*%
%TO.N,GNDA*%
G36*
X152638617Y-100634352D02*
G01*
X152785648Y-100781383D01*
X152800000Y-100816031D01*
X152800000Y-101023969D01*
X152785648Y-101058617D01*
X152638617Y-101205648D01*
X152603969Y-101220000D01*
X152396031Y-101220000D01*
X152361383Y-101205648D01*
X152110383Y-100954648D01*
X152096031Y-100920000D01*
X152110383Y-100885352D01*
X152361383Y-100634352D01*
X152396031Y-100620000D01*
X152603969Y-100620000D01*
X152638617Y-100634352D01*
G37*
%TD.AperFunction*%
%TD*%
%TA.AperFunction,Conductor*%
%TO.N,SDA_3V3*%
G36*
X133485648Y-122754352D02*
G01*
X133500000Y-122789000D01*
X133500000Y-123143969D01*
X133485648Y-123178617D01*
X133338617Y-123325648D01*
X133303969Y-123340000D01*
X133096031Y-123340000D01*
X133061383Y-123325648D01*
X132810383Y-123074648D01*
X132796031Y-123040000D01*
X132810383Y-123005352D01*
X133061383Y-122754352D01*
X133096031Y-122740000D01*
X133451000Y-122740000D01*
X133485648Y-122754352D01*
G37*
%TD.AperFunction*%
%TD*%
%TA.AperFunction,Conductor*%
%TO.N,GNDA*%
G36*
X135315648Y-124054352D02*
G01*
X135330000Y-124089000D01*
X135330000Y-124443969D01*
X135315648Y-124478617D01*
X135168617Y-124625648D01*
X135133969Y-124640000D01*
X134926031Y-124640000D01*
X134891383Y-124625648D01*
X134744352Y-124478617D01*
X134730000Y-124443969D01*
X134730000Y-124236031D01*
X134744352Y-124201383D01*
X134891383Y-124054352D01*
X134926031Y-124040000D01*
X135281000Y-124040000D01*
X135315648Y-124054352D01*
G37*
%TD.AperFunction*%
%TD*%
%TA.AperFunction,Conductor*%
%TO.N,GNDA*%
G36*
X135315648Y-124054352D02*
G01*
X135330000Y-124089000D01*
X135330000Y-124443969D01*
X135315648Y-124478617D01*
X135168617Y-124625648D01*
X135133969Y-124640000D01*
X134926031Y-124640000D01*
X134891383Y-124625648D01*
X134744352Y-124478617D01*
X134730000Y-124443969D01*
X134730000Y-124236031D01*
X134744352Y-124201383D01*
X134891383Y-124054352D01*
X134926031Y-124040000D01*
X135281000Y-124040000D01*
X135315648Y-124054352D01*
G37*
%TD.AperFunction*%
%TD*%
%TA.AperFunction,Conductor*%
%TO.N,SDA_3V3*%
G36*
X129140648Y-123879352D02*
G01*
X129155000Y-123914000D01*
X129155000Y-124268969D01*
X129140648Y-124303617D01*
X128993617Y-124450648D01*
X128958969Y-124465000D01*
X128751031Y-124465000D01*
X128716383Y-124450648D01*
X128569352Y-124303617D01*
X128555000Y-124268969D01*
X128555000Y-124061031D01*
X128569352Y-124026383D01*
X128716383Y-123879352D01*
X128751031Y-123865000D01*
X129106000Y-123865000D01*
X129140648Y-123879352D01*
G37*
%TD.AperFunction*%
%TD*%
%TA.AperFunction,Conductor*%
%TO.N,VDDA*%
G36*
X153374648Y-104450383D02*
G01*
X153625648Y-104701383D01*
X153640000Y-104736031D01*
X153640000Y-104943969D01*
X153625648Y-104978617D01*
X153479117Y-105125148D01*
X153444469Y-105139500D01*
X153235531Y-105139500D01*
X153200883Y-105125148D01*
X153054352Y-104978617D01*
X153040000Y-104943969D01*
X153040000Y-104736031D01*
X153054352Y-104701383D01*
X153305352Y-104450383D01*
X153340000Y-104436031D01*
X153374648Y-104450383D01*
G37*
%TD.AperFunction*%
%TD*%
%TA.AperFunction,Conductor*%
%TO.N,VDDA*%
G36*
X153499111Y-111018850D02*
G01*
X153645648Y-111165387D01*
X153660000Y-111200035D01*
X153660000Y-111407973D01*
X153645648Y-111442621D01*
X153498617Y-111589652D01*
X153463969Y-111604004D01*
X153256031Y-111604004D01*
X153221383Y-111589652D01*
X152970383Y-111338652D01*
X152956031Y-111304004D01*
X152970383Y-111269356D01*
X153220889Y-111018850D01*
X153255537Y-111004498D01*
X153464463Y-111004498D01*
X153499111Y-111018850D01*
G37*
%TD.AperFunction*%
%TD*%
%TA.AperFunction,Conductor*%
%TO.N,SCL_3V3*%
G36*
X134538617Y-120504352D02*
G01*
X134685648Y-120651383D01*
X134700000Y-120686031D01*
X134700000Y-120893969D01*
X134685648Y-120928617D01*
X134434648Y-121179617D01*
X134400000Y-121193969D01*
X134365352Y-121179617D01*
X134119571Y-120933836D01*
X134105219Y-120899188D01*
X134105456Y-120894372D01*
X134105496Y-120893969D01*
X134105497Y-120893966D01*
X134105497Y-120832757D01*
X134104973Y-120818091D01*
X134104474Y-120811117D01*
X134104335Y-120809829D01*
X134104551Y-120797597D01*
X134105644Y-120789997D01*
X134104550Y-120782394D01*
X134104337Y-120770152D01*
X134104473Y-120768890D01*
X134104973Y-120761911D01*
X134105497Y-120747236D01*
X134105497Y-120686031D01*
X134105456Y-120685615D01*
X134105497Y-120685479D01*
X134105497Y-120683621D01*
X134106061Y-120683621D01*
X134116341Y-120649727D01*
X134119562Y-120646172D01*
X134261383Y-120504352D01*
X134296031Y-120490000D01*
X134503969Y-120490000D01*
X134538617Y-120504352D01*
G37*
%TD.AperFunction*%
%TD*%
%TA.AperFunction,Conductor*%
%TO.N,GND*%
G36*
X113086434Y-98458350D02*
G01*
X113887434Y-99259350D01*
X113901786Y-99293998D01*
X113887434Y-99328646D01*
X113086434Y-100129646D01*
X113051786Y-100143998D01*
X112388214Y-100143998D01*
X112353566Y-100129646D01*
X111884352Y-99660432D01*
X111870000Y-99625784D01*
X111870000Y-98962212D01*
X111884352Y-98927564D01*
X112353566Y-98458350D01*
X112388214Y-98443998D01*
X113051786Y-98443998D01*
X113086434Y-98458350D01*
G37*
%TD.AperFunction*%
%TD*%
%TA.AperFunction,Conductor*%
%TO.N,SDA_3V3*%
G36*
X129140648Y-123879352D02*
G01*
X129155000Y-123914000D01*
X129155000Y-124268969D01*
X129140648Y-124303617D01*
X128993617Y-124450648D01*
X128958969Y-124465000D01*
X128751031Y-124465000D01*
X128716383Y-124450648D01*
X128569352Y-124303617D01*
X128555000Y-124268969D01*
X128555000Y-124061031D01*
X128569352Y-124026383D01*
X128716383Y-123879352D01*
X128751031Y-123865000D01*
X129106000Y-123865000D01*
X129140648Y-123879352D01*
G37*
%TD.AperFunction*%
%TD*%
%TA.AperFunction,Conductor*%
%TO.N,SCL_3V3*%
G36*
X134988617Y-103204352D02*
G01*
X135135648Y-103351383D01*
X135150000Y-103386031D01*
X135150000Y-103593969D01*
X135135648Y-103628617D01*
X134988617Y-103775648D01*
X134953969Y-103790000D01*
X134746031Y-103790000D01*
X134711383Y-103775648D01*
X134564352Y-103628617D01*
X134550000Y-103593969D01*
X134550000Y-103239000D01*
X134564352Y-103204352D01*
X134599000Y-103190000D01*
X134953969Y-103190000D01*
X134988617Y-103204352D01*
G37*
%TD.AperFunction*%
%TD*%
%TA.AperFunction,Conductor*%
%TO.N,SDA_3V3*%
G36*
X129128871Y-100454599D02*
G01*
X129275902Y-100601630D01*
X129290254Y-100636278D01*
X129290254Y-100844216D01*
X129275902Y-100878864D01*
X129024902Y-101129864D01*
X128990254Y-101144216D01*
X128955606Y-101129864D01*
X128704606Y-100878864D01*
X128690254Y-100844216D01*
X128690254Y-100636278D01*
X128704606Y-100601630D01*
X128851637Y-100454599D01*
X128886285Y-100440247D01*
X129094223Y-100440247D01*
X129128871Y-100454599D01*
G37*
%TD.AperFunction*%
%TD*%
%TA.AperFunction,Conductor*%
%TO.N,SCL_3V3*%
G36*
X129979385Y-100494852D02*
G01*
X130085637Y-100601104D01*
X130099989Y-100635752D01*
X130099989Y-100990721D01*
X130085637Y-101025369D01*
X130050989Y-101039721D01*
X129696020Y-101039721D01*
X129661372Y-101025369D01*
X129514341Y-100878338D01*
X129499989Y-100843690D01*
X129499989Y-100635752D01*
X129514341Y-100601104D01*
X129620593Y-100494852D01*
X129655241Y-100480500D01*
X129944737Y-100480500D01*
X129979385Y-100494852D01*
G37*
%TD.AperFunction*%
%TD*%
%TA.AperFunction,Conductor*%
%TO.N,SCL_3V3*%
G36*
X134095648Y-124004352D02*
G01*
X134110000Y-124039000D01*
X134110000Y-124393969D01*
X134095648Y-124428617D01*
X133948617Y-124575648D01*
X133913969Y-124590000D01*
X133706031Y-124590000D01*
X133671383Y-124575648D01*
X133524352Y-124428617D01*
X133510000Y-124393969D01*
X133510000Y-124186031D01*
X133524352Y-124151383D01*
X133671383Y-124004352D01*
X133706031Y-123990000D01*
X134061000Y-123990000D01*
X134095648Y-124004352D01*
G37*
%TD.AperFunction*%
%TD*%
%TA.AperFunction,Conductor*%
%TO.N,SCL_3V3*%
G36*
X134988617Y-103204352D02*
G01*
X135135648Y-103351383D01*
X135150000Y-103386031D01*
X135150000Y-103593969D01*
X135135648Y-103628617D01*
X134988617Y-103775648D01*
X134953969Y-103790000D01*
X134746031Y-103790000D01*
X134711383Y-103775648D01*
X134564352Y-103628617D01*
X134550000Y-103593969D01*
X134550000Y-103239000D01*
X134564352Y-103204352D01*
X134599000Y-103190000D01*
X134953969Y-103190000D01*
X134988617Y-103204352D01*
G37*
%TD.AperFunction*%
%TD*%
%TA.AperFunction,Conductor*%
%TO.N,SDA_3V3*%
G36*
X133738614Y-120504349D02*
G01*
X133885645Y-120651380D01*
X133899997Y-120686028D01*
X133899997Y-120742682D01*
X133899965Y-120744445D01*
X133899764Y-120750027D01*
X133899675Y-120751702D01*
X133899624Y-120752427D01*
X133899246Y-120755962D01*
X133894353Y-120789997D01*
X133894353Y-120790002D01*
X133899247Y-120824041D01*
X133899621Y-120827523D01*
X133899670Y-120828209D01*
X133899763Y-120829940D01*
X133899965Y-120835559D01*
X133899997Y-120837319D01*
X133899997Y-120887274D01*
X133899944Y-120889391D01*
X133899997Y-120891082D01*
X133899997Y-120893966D01*
X133885645Y-120928614D01*
X133634645Y-121179614D01*
X133599997Y-121193966D01*
X133565349Y-121179614D01*
X133314349Y-120928614D01*
X133299997Y-120893966D01*
X133299997Y-120686028D01*
X133314349Y-120651380D01*
X133461380Y-120504349D01*
X133496028Y-120489997D01*
X133703966Y-120489997D01*
X133738614Y-120504349D01*
G37*
%TD.AperFunction*%
%TD*%
%TA.AperFunction,Conductor*%
%TO.N,SDA_3V3*%
G36*
X133485648Y-122754352D02*
G01*
X133500000Y-122789000D01*
X133500000Y-123143969D01*
X133485648Y-123178617D01*
X133338617Y-123325648D01*
X133303969Y-123340000D01*
X133096031Y-123340000D01*
X133061383Y-123325648D01*
X132810383Y-123074648D01*
X132796031Y-123040000D01*
X132810383Y-123005352D01*
X133061383Y-122754352D01*
X133096031Y-122740000D01*
X133451000Y-122740000D01*
X133485648Y-122754352D01*
G37*
%TD.AperFunction*%
%TD*%
%TA.AperFunction,Conductor*%
%TO.N,SCL_3V3*%
G36*
X134538617Y-120504352D02*
G01*
X134685648Y-120651383D01*
X134700000Y-120686031D01*
X134700000Y-120893969D01*
X134685648Y-120928617D01*
X134434648Y-121179617D01*
X134400000Y-121193969D01*
X134365352Y-121179617D01*
X134119571Y-120933836D01*
X134105219Y-120899188D01*
X134105456Y-120894372D01*
X134105496Y-120893969D01*
X134105497Y-120893966D01*
X134105497Y-120832757D01*
X134104973Y-120818091D01*
X134104474Y-120811117D01*
X134104335Y-120809829D01*
X134104551Y-120797597D01*
X134105644Y-120789997D01*
X134104550Y-120782394D01*
X134104337Y-120770152D01*
X134104473Y-120768890D01*
X134104973Y-120761911D01*
X134105497Y-120747236D01*
X134105497Y-120686031D01*
X134105456Y-120685615D01*
X134105497Y-120685479D01*
X134105497Y-120683621D01*
X134106061Y-120683621D01*
X134116341Y-120649727D01*
X134119562Y-120646172D01*
X134261383Y-120504352D01*
X134296031Y-120490000D01*
X134503969Y-120490000D01*
X134538617Y-120504352D01*
G37*
%TD.AperFunction*%
%TD*%
%TA.AperFunction,Conductor*%
%TO.N,GNDA*%
G36*
X142189117Y-111018850D02*
G01*
X142335648Y-111165381D01*
X142350000Y-111200029D01*
X142350000Y-111407967D01*
X142335648Y-111442615D01*
X142084648Y-111693615D01*
X142050000Y-111707967D01*
X142015352Y-111693615D01*
X141764352Y-111442615D01*
X141750000Y-111407967D01*
X141750000Y-111200029D01*
X141764352Y-111165381D01*
X141910883Y-111018850D01*
X141945531Y-111004498D01*
X142154469Y-111004498D01*
X142189117Y-111018850D01*
G37*
%TD.AperFunction*%
%TD*%
%TA.AperFunction,Conductor*%
%TO.N,+3V3*%
G36*
X153648617Y-121374352D02*
G01*
X153795648Y-121521383D01*
X153810000Y-121556031D01*
X153810000Y-121763969D01*
X153795648Y-121798617D01*
X153544648Y-122049617D01*
X153510000Y-122063969D01*
X153475352Y-122049617D01*
X153224352Y-121798617D01*
X153210000Y-121763969D01*
X153210000Y-121556031D01*
X153224352Y-121521383D01*
X153371383Y-121374352D01*
X153406031Y-121360000D01*
X153613969Y-121360000D01*
X153648617Y-121374352D01*
G37*
%TD.AperFunction*%
%TD*%
%TA.AperFunction,Conductor*%
%TO.N,VDDA*%
G36*
X153499111Y-111018850D02*
G01*
X153645648Y-111165387D01*
X153660000Y-111200035D01*
X153660000Y-111407973D01*
X153645648Y-111442621D01*
X153498617Y-111589652D01*
X153463969Y-111604004D01*
X153256031Y-111604004D01*
X153221383Y-111589652D01*
X152970383Y-111338652D01*
X152956031Y-111304004D01*
X152970383Y-111269356D01*
X153220889Y-111018850D01*
X153255537Y-111004498D01*
X153464463Y-111004498D01*
X153499111Y-111018850D01*
G37*
%TD.AperFunction*%
%TD*%
%TA.AperFunction,Conductor*%
%TO.N,SCL_3V3*%
G36*
X129979385Y-100494852D02*
G01*
X130085637Y-100601104D01*
X130099989Y-100635752D01*
X130099989Y-100990721D01*
X130085637Y-101025369D01*
X130050989Y-101039721D01*
X129696020Y-101039721D01*
X129661372Y-101025369D01*
X129514341Y-100878338D01*
X129499989Y-100843690D01*
X129499989Y-100635752D01*
X129514341Y-100601104D01*
X129620593Y-100494852D01*
X129655241Y-100480500D01*
X129944737Y-100480500D01*
X129979385Y-100494852D01*
G37*
%TD.AperFunction*%
%TD*%
%TA.AperFunction,Conductor*%
%TO.N,SDA_3V3*%
G36*
X133738614Y-120504349D02*
G01*
X133885645Y-120651380D01*
X133899997Y-120686028D01*
X133899997Y-120742682D01*
X133899965Y-120744445D01*
X133899764Y-120750027D01*
X133899675Y-120751702D01*
X133899624Y-120752427D01*
X133899246Y-120755962D01*
X133894353Y-120789997D01*
X133894353Y-120790002D01*
X133899247Y-120824041D01*
X133899621Y-120827523D01*
X133899670Y-120828209D01*
X133899763Y-120829940D01*
X133899965Y-120835559D01*
X133899997Y-120837319D01*
X133899997Y-120887274D01*
X133899944Y-120889391D01*
X133899997Y-120891082D01*
X133899997Y-120893966D01*
X133885645Y-120928614D01*
X133634645Y-121179614D01*
X133599997Y-121193966D01*
X133565349Y-121179614D01*
X133314349Y-120928614D01*
X133299997Y-120893966D01*
X133299997Y-120686028D01*
X133314349Y-120651380D01*
X133461380Y-120504349D01*
X133496028Y-120489997D01*
X133703966Y-120489997D01*
X133738614Y-120504349D01*
G37*
%TD.AperFunction*%
%TD*%
%TA.AperFunction,Conductor*%
%TO.N,VCC*%
G36*
X172262434Y-95893350D02*
G01*
X172731648Y-96362564D01*
X172746000Y-96397212D01*
X172746000Y-97060784D01*
X172731648Y-97095432D01*
X172262434Y-97564646D01*
X172227786Y-97578998D01*
X171564214Y-97578998D01*
X171529566Y-97564646D01*
X170728566Y-96763646D01*
X170714214Y-96728998D01*
X170728566Y-96694350D01*
X171529566Y-95893350D01*
X171564214Y-95878998D01*
X172227786Y-95878998D01*
X172262434Y-95893350D01*
G37*
%TD.AperFunction*%
%TD*%
%TA.AperFunction,Conductor*%
%TO.N,SDA_3V3*%
G36*
X129128871Y-100454599D02*
G01*
X129275902Y-100601630D01*
X129290254Y-100636278D01*
X129290254Y-100844216D01*
X129275902Y-100878864D01*
X129024902Y-101129864D01*
X128990254Y-101144216D01*
X128955606Y-101129864D01*
X128704606Y-100878864D01*
X128690254Y-100844216D01*
X128690254Y-100636278D01*
X128704606Y-100601630D01*
X128851637Y-100454599D01*
X128886285Y-100440247D01*
X129094223Y-100440247D01*
X129128871Y-100454599D01*
G37*
%TD.AperFunction*%
%TD*%
%TA.AperFunction,Conductor*%
%TO.N,SDA_3V3*%
G36*
X134988617Y-104104352D02*
G01*
X135135648Y-104251383D01*
X135150000Y-104286031D01*
X135150000Y-104493969D01*
X135135648Y-104528617D01*
X134988617Y-104675648D01*
X134953969Y-104690000D01*
X134746031Y-104690000D01*
X134711383Y-104675648D01*
X134564352Y-104528617D01*
X134550000Y-104493969D01*
X134550000Y-104139000D01*
X134564352Y-104104352D01*
X134599000Y-104090000D01*
X134953969Y-104090000D01*
X134988617Y-104104352D01*
G37*
%TD.AperFunction*%
%TD*%
%TA.AperFunction,Conductor*%
%TO.N,VDDA*%
G36*
X134116028Y-127014352D02*
G01*
X134130380Y-127049000D01*
X134130380Y-127403969D01*
X134116028Y-127438617D01*
X133968997Y-127585648D01*
X133934349Y-127600000D01*
X133726411Y-127600000D01*
X133691763Y-127585648D01*
X133544732Y-127438617D01*
X133530380Y-127403969D01*
X133530380Y-127196031D01*
X133544732Y-127161383D01*
X133691763Y-127014352D01*
X133726411Y-127000000D01*
X134081380Y-127000000D01*
X134116028Y-127014352D01*
G37*
%TD.AperFunction*%
%TD*%
%TA.AperFunction,Conductor*%
%TO.N,+3V3*%
G36*
X153564648Y-125990383D02*
G01*
X153815648Y-126241383D01*
X153830000Y-126276031D01*
X153830000Y-126483969D01*
X153815648Y-126518617D01*
X153668617Y-126665648D01*
X153633969Y-126680000D01*
X153426031Y-126680000D01*
X153391383Y-126665648D01*
X153244352Y-126518617D01*
X153230000Y-126483969D01*
X153230000Y-126276031D01*
X153244352Y-126241383D01*
X153495352Y-125990383D01*
X153530000Y-125976031D01*
X153564648Y-125990383D01*
G37*
%TD.AperFunction*%
%TD*%
%TA.AperFunction,Conductor*%
%TO.N,SCL*%
G36*
X157354648Y-127640383D02*
G01*
X157605648Y-127891383D01*
X157620000Y-127926031D01*
X157620000Y-128133969D01*
X157605648Y-128168617D01*
X157458617Y-128315648D01*
X157423969Y-128330000D01*
X157216031Y-128330000D01*
X157181383Y-128315648D01*
X157034352Y-128168617D01*
X157020000Y-128133969D01*
X157020000Y-127926031D01*
X157034352Y-127891383D01*
X157285352Y-127640383D01*
X157320000Y-127626031D01*
X157354648Y-127640383D01*
G37*
%TD.AperFunction*%
%TD*%
%TA.AperFunction,Conductor*%
%TO.N,+3V3*%
G36*
X153648617Y-121374352D02*
G01*
X153795648Y-121521383D01*
X153810000Y-121556031D01*
X153810000Y-121763969D01*
X153795648Y-121798617D01*
X153544648Y-122049617D01*
X153510000Y-122063969D01*
X153475352Y-122049617D01*
X153224352Y-121798617D01*
X153210000Y-121763969D01*
X153210000Y-121556031D01*
X153224352Y-121521383D01*
X153371383Y-121374352D01*
X153406031Y-121360000D01*
X153613969Y-121360000D01*
X153648617Y-121374352D01*
G37*
%TD.AperFunction*%
%TD*%
%TA.AperFunction,Conductor*%
%TO.N,GNDA*%
G36*
X152638617Y-100634352D02*
G01*
X152785648Y-100781383D01*
X152800000Y-100816031D01*
X152800000Y-101023969D01*
X152785648Y-101058617D01*
X152638617Y-101205648D01*
X152603969Y-101220000D01*
X152396031Y-101220000D01*
X152361383Y-101205648D01*
X152110383Y-100954648D01*
X152096031Y-100920000D01*
X152110383Y-100885352D01*
X152361383Y-100634352D01*
X152396031Y-100620000D01*
X152603969Y-100620000D01*
X152638617Y-100634352D01*
G37*
%TD.AperFunction*%
%TD*%
%TA.AperFunction,Conductor*%
%TO.N,VDDA*%
G36*
X134116028Y-127014352D02*
G01*
X134130380Y-127049000D01*
X134130380Y-127403969D01*
X134116028Y-127438617D01*
X133968997Y-127585648D01*
X133934349Y-127600000D01*
X133726411Y-127600000D01*
X133691763Y-127585648D01*
X133544732Y-127438617D01*
X133530380Y-127403969D01*
X133530380Y-127196031D01*
X133544732Y-127161383D01*
X133691763Y-127014352D01*
X133726411Y-127000000D01*
X134081380Y-127000000D01*
X134116028Y-127014352D01*
G37*
%TD.AperFunction*%
%TD*%
%TA.AperFunction,Conductor*%
%TO.N,VDDA*%
G36*
X153374648Y-104450383D02*
G01*
X153625648Y-104701383D01*
X153640000Y-104736031D01*
X153640000Y-104943969D01*
X153625648Y-104978617D01*
X153479117Y-105125148D01*
X153444469Y-105139500D01*
X153235531Y-105139500D01*
X153200883Y-105125148D01*
X153054352Y-104978617D01*
X153040000Y-104943969D01*
X153040000Y-104736031D01*
X153054352Y-104701383D01*
X153305352Y-104450383D01*
X153340000Y-104436031D01*
X153374648Y-104450383D01*
G37*
%TD.AperFunction*%
%TD*%
%TA.AperFunction,Conductor*%
%TO.N,SCL*%
G36*
X157468617Y-122304352D02*
G01*
X157615648Y-122451383D01*
X157630000Y-122486031D01*
X157630000Y-122693969D01*
X157615648Y-122728617D01*
X157364648Y-122979617D01*
X157330000Y-122993969D01*
X157295352Y-122979617D01*
X157044352Y-122728617D01*
X157030000Y-122693969D01*
X157030000Y-122486031D01*
X157044352Y-122451383D01*
X157191383Y-122304352D01*
X157226031Y-122290000D01*
X157433969Y-122290000D01*
X157468617Y-122304352D01*
G37*
%TD.AperFunction*%
%TD*%
%TA.AperFunction,Conductor*%
%TO.N,EN*%
G36*
X172262434Y-106053350D02*
G01*
X172731648Y-106522564D01*
X172746000Y-106557212D01*
X172746000Y-107220784D01*
X172731648Y-107255432D01*
X172262434Y-107724646D01*
X172227786Y-107738998D01*
X171095000Y-107738998D01*
X171060352Y-107724646D01*
X171046000Y-107689998D01*
X171046000Y-106557212D01*
X171060352Y-106522564D01*
X171529566Y-106053350D01*
X171564214Y-106038998D01*
X172227786Y-106038998D01*
X172262434Y-106053350D01*
G37*
%TD.AperFunction*%
%TD*%
%TA.AperFunction,Conductor*%
%TO.N,SCL_3V3*%
G36*
X129979385Y-100494852D02*
G01*
X130085637Y-100601104D01*
X130099989Y-100635752D01*
X130099989Y-100990721D01*
X130085637Y-101025369D01*
X130050989Y-101039721D01*
X129696020Y-101039721D01*
X129661372Y-101025369D01*
X129514341Y-100878338D01*
X129499989Y-100843690D01*
X129499989Y-100635752D01*
X129514341Y-100601104D01*
X129620593Y-100494852D01*
X129655241Y-100480500D01*
X129944737Y-100480500D01*
X129979385Y-100494852D01*
G37*
%TD.AperFunction*%
%TD*%
%TA.AperFunction,Conductor*%
%TO.N,SDA_3V3*%
G36*
X133485648Y-122754352D02*
G01*
X133500000Y-122789000D01*
X133500000Y-123143969D01*
X133485648Y-123178617D01*
X133338617Y-123325648D01*
X133303969Y-123340000D01*
X133096031Y-123340000D01*
X133061383Y-123325648D01*
X132810383Y-123074648D01*
X132796031Y-123040000D01*
X132810383Y-123005352D01*
X133061383Y-122754352D01*
X133096031Y-122740000D01*
X133451000Y-122740000D01*
X133485648Y-122754352D01*
G37*
%TD.AperFunction*%
%TD*%
%TA.AperFunction,Conductor*%
%TO.N,SDA_3V3*%
G36*
X134988617Y-104104352D02*
G01*
X135135648Y-104251383D01*
X135150000Y-104286031D01*
X135150000Y-104493969D01*
X135135648Y-104528617D01*
X134988617Y-104675648D01*
X134953969Y-104690000D01*
X134746031Y-104690000D01*
X134711383Y-104675648D01*
X134564352Y-104528617D01*
X134550000Y-104493969D01*
X134550000Y-104139000D01*
X134564352Y-104104352D01*
X134599000Y-104090000D01*
X134953969Y-104090000D01*
X134988617Y-104104352D01*
G37*
%TD.AperFunction*%
%TD*%
%TA.AperFunction,Conductor*%
%TO.N,GNDA*%
G36*
X152638617Y-100634352D02*
G01*
X152785648Y-100781383D01*
X152800000Y-100816031D01*
X152800000Y-101023969D01*
X152785648Y-101058617D01*
X152638617Y-101205648D01*
X152603969Y-101220000D01*
X152396031Y-101220000D01*
X152361383Y-101205648D01*
X152110383Y-100954648D01*
X152096031Y-100920000D01*
X152110383Y-100885352D01*
X152361383Y-100634352D01*
X152396031Y-100620000D01*
X152603969Y-100620000D01*
X152638617Y-100634352D01*
G37*
%TD.AperFunction*%
%TD*%
%TA.AperFunction,Conductor*%
%TO.N,SCL*%
G36*
X157354648Y-127640383D02*
G01*
X157605648Y-127891383D01*
X157620000Y-127926031D01*
X157620000Y-128133969D01*
X157605648Y-128168617D01*
X157458617Y-128315648D01*
X157423969Y-128330000D01*
X157216031Y-128330000D01*
X157181383Y-128315648D01*
X157034352Y-128168617D01*
X157020000Y-128133969D01*
X157020000Y-127926031D01*
X157034352Y-127891383D01*
X157285352Y-127640383D01*
X157320000Y-127626031D01*
X157354648Y-127640383D01*
G37*
%TD.AperFunction*%
%TD*%
%TA.AperFunction,Conductor*%
%TO.N,SDA*%
G36*
X116095648Y-100998350D02*
G01*
X116110000Y-101032998D01*
X116110000Y-102165784D01*
X116095648Y-102200432D01*
X115626934Y-102669146D01*
X115592286Y-102683498D01*
X114927714Y-102683498D01*
X114893066Y-102669146D01*
X114424352Y-102200432D01*
X114410000Y-102165784D01*
X114410000Y-101502212D01*
X114424352Y-101467564D01*
X114893566Y-100998350D01*
X114928214Y-100983998D01*
X116061000Y-100983998D01*
X116095648Y-100998350D01*
G37*
%TD.AperFunction*%
%TD*%
%TA.AperFunction,Conductor*%
%TO.N,VDDA*%
G36*
X153374648Y-104450383D02*
G01*
X153625648Y-104701383D01*
X153640000Y-104736031D01*
X153640000Y-104943969D01*
X153625648Y-104978617D01*
X153479117Y-105125148D01*
X153444469Y-105139500D01*
X153235531Y-105139500D01*
X153200883Y-105125148D01*
X153054352Y-104978617D01*
X153040000Y-104943969D01*
X153040000Y-104736031D01*
X153054352Y-104701383D01*
X153305352Y-104450383D01*
X153340000Y-104436031D01*
X153374648Y-104450383D01*
G37*
%TD.AperFunction*%
%TD*%
%TA.AperFunction,Conductor*%
%TO.N,VDDA*%
G36*
X153374648Y-104450383D02*
G01*
X153625648Y-104701383D01*
X153640000Y-104736031D01*
X153640000Y-104943969D01*
X153625648Y-104978617D01*
X153479117Y-105125148D01*
X153444469Y-105139500D01*
X153235531Y-105139500D01*
X153200883Y-105125148D01*
X153054352Y-104978617D01*
X153040000Y-104943969D01*
X153040000Y-104736031D01*
X153054352Y-104701383D01*
X153305352Y-104450383D01*
X153340000Y-104436031D01*
X153374648Y-104450383D01*
G37*
%TD.AperFunction*%
%TD*%
%TA.AperFunction,Conductor*%
%TO.N,+3V3*%
G36*
X153648617Y-121374352D02*
G01*
X153795648Y-121521383D01*
X153810000Y-121556031D01*
X153810000Y-121763969D01*
X153795648Y-121798617D01*
X153544648Y-122049617D01*
X153510000Y-122063969D01*
X153475352Y-122049617D01*
X153224352Y-121798617D01*
X153210000Y-121763969D01*
X153210000Y-121556031D01*
X153224352Y-121521383D01*
X153371383Y-121374352D01*
X153406031Y-121360000D01*
X153613969Y-121360000D01*
X153648617Y-121374352D01*
G37*
%TD.AperFunction*%
%TD*%
%TA.AperFunction,Conductor*%
%TO.N,SCL_3V3*%
G36*
X134538617Y-120504352D02*
G01*
X134685648Y-120651383D01*
X134700000Y-120686031D01*
X134700000Y-120893969D01*
X134685648Y-120928617D01*
X134434648Y-121179617D01*
X134400000Y-121193969D01*
X134365352Y-121179617D01*
X134119571Y-120933836D01*
X134105219Y-120899188D01*
X134105456Y-120894372D01*
X134105496Y-120893969D01*
X134105497Y-120893966D01*
X134105497Y-120832757D01*
X134104973Y-120818091D01*
X134104474Y-120811117D01*
X134104334Y-120809817D01*
X134104551Y-120797595D01*
X134105644Y-120789997D01*
X134104550Y-120782394D01*
X134104337Y-120770152D01*
X134104473Y-120768890D01*
X134104973Y-120761911D01*
X134105497Y-120747236D01*
X134105497Y-120686031D01*
X134105456Y-120685615D01*
X134105497Y-120685479D01*
X134105497Y-120683621D01*
X134106061Y-120683621D01*
X134116341Y-120649727D01*
X134119562Y-120646172D01*
X134261383Y-120504352D01*
X134296031Y-120490000D01*
X134503969Y-120490000D01*
X134538617Y-120504352D01*
G37*
%TD.AperFunction*%
%TD*%
%TA.AperFunction,Conductor*%
%TO.N,GNDA*%
G36*
X152638617Y-100634352D02*
G01*
X152785648Y-100781383D01*
X152800000Y-100816031D01*
X152800000Y-101023969D01*
X152785648Y-101058617D01*
X152638617Y-101205648D01*
X152603969Y-101220000D01*
X152396031Y-101220000D01*
X152361383Y-101205648D01*
X152110383Y-100954648D01*
X152096031Y-100920000D01*
X152110383Y-100885352D01*
X152361383Y-100634352D01*
X152396031Y-100620000D01*
X152603969Y-100620000D01*
X152638617Y-100634352D01*
G37*
%TD.AperFunction*%
%TD*%
%TA.AperFunction,Conductor*%
%TO.N,VDDA*%
G36*
X153499111Y-111018850D02*
G01*
X153645648Y-111165387D01*
X153660000Y-111200035D01*
X153660000Y-111407973D01*
X153645648Y-111442621D01*
X153498617Y-111589652D01*
X153463969Y-111604004D01*
X153256031Y-111604004D01*
X153221383Y-111589652D01*
X152970383Y-111338652D01*
X152956031Y-111304004D01*
X152970383Y-111269356D01*
X153220889Y-111018850D01*
X153255537Y-111004498D01*
X153464463Y-111004498D01*
X153499111Y-111018850D01*
G37*
%TD.AperFunction*%
%TD*%
%TA.AperFunction,Conductor*%
%TO.N,INT*%
G36*
X113086434Y-108618350D02*
G01*
X113555648Y-109087564D01*
X113570000Y-109122212D01*
X113570000Y-110254998D01*
X113555648Y-110289646D01*
X113521000Y-110303998D01*
X112388214Y-110303998D01*
X112353566Y-110289646D01*
X111884352Y-109820432D01*
X111870000Y-109785784D01*
X111870000Y-109122212D01*
X111884352Y-109087564D01*
X112353566Y-108618350D01*
X112388214Y-108603998D01*
X113051786Y-108603998D01*
X113086434Y-108618350D01*
G37*
%TD.AperFunction*%
%TD*%
%TA.AperFunction,Conductor*%
%TO.N,SCL_3V3*%
G36*
X134988617Y-103204352D02*
G01*
X135135648Y-103351383D01*
X135150000Y-103386031D01*
X135150000Y-103593969D01*
X135135648Y-103628617D01*
X134988617Y-103775648D01*
X134953969Y-103790000D01*
X134746031Y-103790000D01*
X134711383Y-103775648D01*
X134564352Y-103628617D01*
X134550000Y-103593969D01*
X134550000Y-103239000D01*
X134564352Y-103204352D01*
X134599000Y-103190000D01*
X134953969Y-103190000D01*
X134988617Y-103204352D01*
G37*
%TD.AperFunction*%
%TD*%
%TA.AperFunction,Conductor*%
%TO.N,SDA_3V3*%
G36*
X129140648Y-123879352D02*
G01*
X129155000Y-123914000D01*
X129155000Y-124268969D01*
X129140648Y-124303617D01*
X128993617Y-124450648D01*
X128958969Y-124465000D01*
X128751031Y-124465000D01*
X128716383Y-124450648D01*
X128569352Y-124303617D01*
X128555000Y-124268969D01*
X128555000Y-124061031D01*
X128569352Y-124026383D01*
X128716383Y-123879352D01*
X128751031Y-123865000D01*
X129106000Y-123865000D01*
X129140648Y-123879352D01*
G37*
%TD.AperFunction*%
%TD*%
%TA.AperFunction,Conductor*%
%TO.N,SCL*%
G36*
X157468617Y-122304352D02*
G01*
X157615648Y-122451383D01*
X157630000Y-122486031D01*
X157630000Y-122693969D01*
X157615648Y-122728617D01*
X157364648Y-122979617D01*
X157330000Y-122993969D01*
X157295352Y-122979617D01*
X157044352Y-122728617D01*
X157030000Y-122693969D01*
X157030000Y-122486031D01*
X157044352Y-122451383D01*
X157191383Y-122304352D01*
X157226031Y-122290000D01*
X157433969Y-122290000D01*
X157468617Y-122304352D01*
G37*
%TD.AperFunction*%
%TD*%
%TA.AperFunction,Conductor*%
%TO.N,+3V3*%
G36*
X153564648Y-125990383D02*
G01*
X153815648Y-126241383D01*
X153830000Y-126276031D01*
X153830000Y-126483969D01*
X153815648Y-126518617D01*
X153668617Y-126665648D01*
X153633969Y-126680000D01*
X153426031Y-126680000D01*
X153391383Y-126665648D01*
X153244352Y-126518617D01*
X153230000Y-126483969D01*
X153230000Y-126276031D01*
X153244352Y-126241383D01*
X153495352Y-125990383D01*
X153530000Y-125976031D01*
X153564648Y-125990383D01*
G37*
%TD.AperFunction*%
%TD*%
%TA.AperFunction,Conductor*%
%TO.N,VDDA*%
G36*
X134116028Y-127014352D02*
G01*
X134130380Y-127049000D01*
X134130380Y-127403969D01*
X134116028Y-127438617D01*
X133968997Y-127585648D01*
X133934349Y-127600000D01*
X133726411Y-127600000D01*
X133691763Y-127585648D01*
X133544732Y-127438617D01*
X133530380Y-127403969D01*
X133530380Y-127196031D01*
X133544732Y-127161383D01*
X133691763Y-127014352D01*
X133726411Y-127000000D01*
X134081380Y-127000000D01*
X134116028Y-127014352D01*
G37*
%TD.AperFunction*%
%TD*%
%TA.AperFunction,Conductor*%
%TO.N,VDDA*%
G36*
X153374648Y-104450383D02*
G01*
X153625648Y-104701383D01*
X153640000Y-104736031D01*
X153640000Y-104943969D01*
X153625648Y-104978617D01*
X153479117Y-105125148D01*
X153444469Y-105139500D01*
X153235531Y-105139500D01*
X153200883Y-105125148D01*
X153054352Y-104978617D01*
X153040000Y-104943969D01*
X153040000Y-104736031D01*
X153054352Y-104701383D01*
X153305352Y-104450383D01*
X153340000Y-104436031D01*
X153374648Y-104450383D01*
G37*
%TD.AperFunction*%
%TD*%
%TA.AperFunction,Conductor*%
%TO.N,SCL_3V3*%
G36*
X134095648Y-124004352D02*
G01*
X134110000Y-124039000D01*
X134110000Y-124393969D01*
X134095648Y-124428617D01*
X133948617Y-124575648D01*
X133913969Y-124590000D01*
X133706031Y-124590000D01*
X133671383Y-124575648D01*
X133524352Y-124428617D01*
X133510000Y-124393969D01*
X133510000Y-124186031D01*
X133524352Y-124151383D01*
X133671383Y-124004352D01*
X133706031Y-123990000D01*
X134061000Y-123990000D01*
X134095648Y-124004352D01*
G37*
%TD.AperFunction*%
%TD*%
%TA.AperFunction,Conductor*%
%TO.N,VCC*%
G36*
X113086434Y-95918350D02*
G01*
X113887434Y-96719350D01*
X113901786Y-96753998D01*
X113887434Y-96788646D01*
X113086434Y-97589646D01*
X113051786Y-97603998D01*
X112388214Y-97603998D01*
X112353566Y-97589646D01*
X111884352Y-97120432D01*
X111870000Y-97085784D01*
X111870000Y-96422212D01*
X111884352Y-96387564D01*
X112353566Y-95918350D01*
X112388214Y-95903998D01*
X113051786Y-95903998D01*
X113086434Y-95918350D01*
G37*
%TD.AperFunction*%
%TD*%
%TA.AperFunction,Conductor*%
%TO.N,SCL*%
G36*
X157468617Y-122304352D02*
G01*
X157615648Y-122451383D01*
X157630000Y-122486031D01*
X157630000Y-122693969D01*
X157615648Y-122728617D01*
X157364648Y-122979617D01*
X157330000Y-122993969D01*
X157295352Y-122979617D01*
X157044352Y-122728617D01*
X157030000Y-122693969D01*
X157030000Y-122486031D01*
X157044352Y-122451383D01*
X157191383Y-122304352D01*
X157226031Y-122290000D01*
X157433969Y-122290000D01*
X157468617Y-122304352D01*
G37*
%TD.AperFunction*%
%TD*%
%TA.AperFunction,Conductor*%
%TO.N,GND*%
G36*
X160288617Y-102404352D02*
G01*
X160435648Y-102551383D01*
X160450000Y-102586031D01*
X160450000Y-102793969D01*
X160435648Y-102828617D01*
X160288617Y-102975648D01*
X160253969Y-102990000D01*
X160046031Y-102990000D01*
X160011383Y-102975648D01*
X159864352Y-102828617D01*
X159850000Y-102793969D01*
X159850000Y-102439000D01*
X159864352Y-102404352D01*
X159899000Y-102390000D01*
X160253969Y-102390000D01*
X160288617Y-102404352D01*
G37*
%TD.AperFunction*%
%TD*%
%TA.AperFunction,Conductor*%
%TO.N,SCL_3V3*%
G36*
X134095648Y-124004352D02*
G01*
X134110000Y-124039000D01*
X134110000Y-124393969D01*
X134095648Y-124428617D01*
X133948617Y-124575648D01*
X133913969Y-124590000D01*
X133706031Y-124590000D01*
X133671383Y-124575648D01*
X133524352Y-124428617D01*
X133510000Y-124393969D01*
X133510000Y-124186031D01*
X133524352Y-124151383D01*
X133671383Y-124004352D01*
X133706031Y-123990000D01*
X134061000Y-123990000D01*
X134095648Y-124004352D01*
G37*
%TD.AperFunction*%
%TD*%
%TA.AperFunction,Conductor*%
%TO.N,SCL_3V3*%
G36*
X134988617Y-103204352D02*
G01*
X135135648Y-103351383D01*
X135150000Y-103386031D01*
X135150000Y-103593969D01*
X135135648Y-103628617D01*
X134988617Y-103775648D01*
X134953969Y-103790000D01*
X134746031Y-103790000D01*
X134711383Y-103775648D01*
X134564352Y-103628617D01*
X134550000Y-103593969D01*
X134550000Y-103239000D01*
X134564352Y-103204352D01*
X134599000Y-103190000D01*
X134953969Y-103190000D01*
X134988617Y-103204352D01*
G37*
%TD.AperFunction*%
%TD*%
%TA.AperFunction,Conductor*%
%TO.N,SCL_3V3*%
G36*
X134095648Y-124004352D02*
G01*
X134110000Y-124039000D01*
X134110000Y-124393969D01*
X134095648Y-124428617D01*
X133948617Y-124575648D01*
X133913969Y-124590000D01*
X133706031Y-124590000D01*
X133671383Y-124575648D01*
X133524352Y-124428617D01*
X133510000Y-124393969D01*
X133510000Y-124186031D01*
X133524352Y-124151383D01*
X133671383Y-124004352D01*
X133706031Y-123990000D01*
X134061000Y-123990000D01*
X134095648Y-124004352D01*
G37*
%TD.AperFunction*%
%TD*%
%TA.AperFunction,Conductor*%
%TO.N,GNDA*%
G36*
X135315648Y-124054352D02*
G01*
X135330000Y-124089000D01*
X135330000Y-124443969D01*
X135315648Y-124478617D01*
X135168617Y-124625648D01*
X135133969Y-124640000D01*
X134926031Y-124640000D01*
X134891383Y-124625648D01*
X134744352Y-124478617D01*
X134730000Y-124443969D01*
X134730000Y-124236031D01*
X134744352Y-124201383D01*
X134891383Y-124054352D01*
X134926031Y-124040000D01*
X135281000Y-124040000D01*
X135315648Y-124054352D01*
G37*
%TD.AperFunction*%
%TD*%
%TA.AperFunction,Conductor*%
%TO.N,IRQ#*%
G36*
X115626434Y-108618350D02*
G01*
X116427434Y-109419350D01*
X116441786Y-109453998D01*
X116427434Y-109488646D01*
X115626934Y-110289146D01*
X115592286Y-110303498D01*
X114927714Y-110303498D01*
X114893066Y-110289146D01*
X114424352Y-109820432D01*
X114410000Y-109785784D01*
X114410000Y-109122212D01*
X114424352Y-109087564D01*
X114893566Y-108618350D01*
X114928214Y-108603998D01*
X115591786Y-108603998D01*
X115626434Y-108618350D01*
G37*
%TD.AperFunction*%
%TD*%
%TA.AperFunction,Conductor*%
%TO.N,CS3*%
G36*
X113086434Y-100998350D02*
G01*
X113555648Y-101467564D01*
X113570000Y-101502212D01*
X113570000Y-102634998D01*
X113555648Y-102669646D01*
X113521000Y-102683998D01*
X112388214Y-102683998D01*
X112353566Y-102669646D01*
X111884352Y-102200432D01*
X111870000Y-102165784D01*
X111870000Y-101502212D01*
X111884352Y-101467564D01*
X112353566Y-100998350D01*
X112388214Y-100983998D01*
X113051786Y-100983998D01*
X113086434Y-100998350D01*
G37*
%TD.AperFunction*%
%TD*%
%TA.AperFunction,Conductor*%
%TO.N,VCC*%
G36*
X116095648Y-95918350D02*
G01*
X116110000Y-95952998D01*
X116110000Y-97085784D01*
X116095648Y-97120432D01*
X115626434Y-97589646D01*
X115591786Y-97603998D01*
X114928214Y-97603998D01*
X114893566Y-97589646D01*
X114092566Y-96788646D01*
X114078214Y-96753998D01*
X114092566Y-96719350D01*
X114893566Y-95918350D01*
X114928214Y-95903998D01*
X116061000Y-95903998D01*
X116095648Y-95918350D01*
G37*
%TD.AperFunction*%
%TD*%
%TA.AperFunction,Conductor*%
%TO.N,SCL_3V3*%
G36*
X129979385Y-100494852D02*
G01*
X130085637Y-100601104D01*
X130099989Y-100635752D01*
X130099989Y-100990721D01*
X130085637Y-101025369D01*
X130050989Y-101039721D01*
X129696020Y-101039721D01*
X129661372Y-101025369D01*
X129514341Y-100878338D01*
X129499989Y-100843690D01*
X129499989Y-100635752D01*
X129514341Y-100601104D01*
X129620593Y-100494852D01*
X129655241Y-100480500D01*
X129944737Y-100480500D01*
X129979385Y-100494852D01*
G37*
%TD.AperFunction*%
%TD*%
%TA.AperFunction,Conductor*%
%TO.N,GNDA*%
G36*
X142189117Y-111018850D02*
G01*
X142335648Y-111165381D01*
X142350000Y-111200029D01*
X142350000Y-111407967D01*
X142335648Y-111442615D01*
X142084648Y-111693615D01*
X142050000Y-111707967D01*
X142015352Y-111693615D01*
X141764352Y-111442615D01*
X141750000Y-111407967D01*
X141750000Y-111200029D01*
X141764352Y-111165381D01*
X141910883Y-111018850D01*
X141945531Y-111004498D01*
X142154469Y-111004498D01*
X142189117Y-111018850D01*
G37*
%TD.AperFunction*%
%TD*%
%TA.AperFunction,Conductor*%
%TO.N,+3V3*%
G36*
X153564648Y-125990383D02*
G01*
X153815648Y-126241383D01*
X153830000Y-126276031D01*
X153830000Y-126483969D01*
X153815648Y-126518617D01*
X153668617Y-126665648D01*
X153633969Y-126680000D01*
X153426031Y-126680000D01*
X153391383Y-126665648D01*
X153244352Y-126518617D01*
X153230000Y-126483969D01*
X153230000Y-126276031D01*
X153244352Y-126241383D01*
X153495352Y-125990383D01*
X153530000Y-125976031D01*
X153564648Y-125990383D01*
G37*
%TD.AperFunction*%
%TD*%
%TA.AperFunction,Conductor*%
%TO.N,SDA_3V3*%
G36*
X133738614Y-120504349D02*
G01*
X133885645Y-120651380D01*
X133899997Y-120686028D01*
X133899997Y-120742687D01*
X133899966Y-120744443D01*
X133899765Y-120750047D01*
X133899670Y-120751797D01*
X133899621Y-120752480D01*
X133899248Y-120755946D01*
X133894353Y-120789996D01*
X133894353Y-120790002D01*
X133899247Y-120824041D01*
X133899623Y-120827543D01*
X133899672Y-120828233D01*
X133899763Y-120829942D01*
X133899965Y-120835556D01*
X133899997Y-120837318D01*
X133899997Y-120887274D01*
X133899944Y-120889391D01*
X133899997Y-120891082D01*
X133899997Y-120893966D01*
X133885645Y-120928614D01*
X133634645Y-121179614D01*
X133599997Y-121193966D01*
X133565349Y-121179614D01*
X133314349Y-120928614D01*
X133299997Y-120893966D01*
X133299997Y-120686028D01*
X133314349Y-120651380D01*
X133461380Y-120504349D01*
X133496028Y-120489997D01*
X133703966Y-120489997D01*
X133738614Y-120504349D01*
G37*
%TD.AperFunction*%
%TD*%
%TA.AperFunction,Conductor*%
%TO.N,+3V3*%
G36*
X153564648Y-125990383D02*
G01*
X153815648Y-126241383D01*
X153830000Y-126276031D01*
X153830000Y-126483969D01*
X153815648Y-126518617D01*
X153668617Y-126665648D01*
X153633969Y-126680000D01*
X153426031Y-126680000D01*
X153391383Y-126665648D01*
X153244352Y-126518617D01*
X153230000Y-126483969D01*
X153230000Y-126276031D01*
X153244352Y-126241383D01*
X153495352Y-125990383D01*
X153530000Y-125976031D01*
X153564648Y-125990383D01*
G37*
%TD.AperFunction*%
%TD*%
%TA.AperFunction,Conductor*%
%TO.N,SDA_3V3*%
G36*
X129140648Y-123879352D02*
G01*
X129155000Y-123914000D01*
X129155000Y-124268969D01*
X129140648Y-124303617D01*
X128993617Y-124450648D01*
X128958969Y-124465000D01*
X128751031Y-124465000D01*
X128716383Y-124450648D01*
X128569352Y-124303617D01*
X128555000Y-124268969D01*
X128555000Y-124061031D01*
X128569352Y-124026383D01*
X128716383Y-123879352D01*
X128751031Y-123865000D01*
X129106000Y-123865000D01*
X129140648Y-123879352D01*
G37*
%TD.AperFunction*%
%TD*%
%TA.AperFunction,Conductor*%
%TO.N,SCL_3V3*%
G36*
X134538617Y-120504352D02*
G01*
X134685648Y-120651383D01*
X134700000Y-120686031D01*
X134700000Y-120893969D01*
X134685648Y-120928617D01*
X134434648Y-121179617D01*
X134400000Y-121193969D01*
X134365352Y-121179617D01*
X134119571Y-120933836D01*
X134105219Y-120899188D01*
X134105456Y-120894372D01*
X134105496Y-120893969D01*
X134105497Y-120893966D01*
X134105497Y-120832757D01*
X134104973Y-120818091D01*
X134104973Y-120818083D01*
X134104474Y-120811111D01*
X134104335Y-120809822D01*
X134104550Y-120797598D01*
X134105644Y-120789997D01*
X134104550Y-120782395D01*
X134104334Y-120770181D01*
X134104474Y-120768882D01*
X134104973Y-120761909D01*
X134105497Y-120747241D01*
X134105497Y-120686028D01*
X134105496Y-120686025D01*
X134105456Y-120685615D01*
X134105497Y-120685479D01*
X134105497Y-120683621D01*
X134106061Y-120683621D01*
X134116341Y-120649727D01*
X134119562Y-120646172D01*
X134261383Y-120504352D01*
X134296031Y-120490000D01*
X134503969Y-120490000D01*
X134538617Y-120504352D01*
G37*
%TD.AperFunction*%
%TD*%
%TA.AperFunction,Conductor*%
%TO.N,GNDA*%
G36*
X135315648Y-124054352D02*
G01*
X135330000Y-124089000D01*
X135330000Y-124443969D01*
X135315648Y-124478617D01*
X135168617Y-124625648D01*
X135133969Y-124640000D01*
X134926031Y-124640000D01*
X134891383Y-124625648D01*
X134744352Y-124478617D01*
X134730000Y-124443969D01*
X134730000Y-124236031D01*
X134744352Y-124201383D01*
X134891383Y-124054352D01*
X134926031Y-124040000D01*
X135281000Y-124040000D01*
X135315648Y-124054352D01*
G37*
%TD.AperFunction*%
%TD*%
%TA.AperFunction,Conductor*%
%TO.N,SDA_3V3*%
G36*
X133485648Y-122754352D02*
G01*
X133500000Y-122789000D01*
X133500000Y-123143969D01*
X133485648Y-123178617D01*
X133338617Y-123325648D01*
X133303969Y-123340000D01*
X133096031Y-123340000D01*
X133061383Y-123325648D01*
X132810383Y-123074648D01*
X132796031Y-123040000D01*
X132810383Y-123005352D01*
X133061383Y-122754352D01*
X133096031Y-122740000D01*
X133451000Y-122740000D01*
X133485648Y-122754352D01*
G37*
%TD.AperFunction*%
%TD*%
%TA.AperFunction,Conductor*%
%TO.N,VDDA*%
G36*
X134116028Y-127014352D02*
G01*
X134130380Y-127049000D01*
X134130380Y-127403969D01*
X134116028Y-127438617D01*
X133968997Y-127585648D01*
X133934349Y-127600000D01*
X133726411Y-127600000D01*
X133691763Y-127585648D01*
X133544732Y-127438617D01*
X133530380Y-127403969D01*
X133530380Y-127196031D01*
X133544732Y-127161383D01*
X133691763Y-127014352D01*
X133726411Y-127000000D01*
X134081380Y-127000000D01*
X134116028Y-127014352D01*
G37*
%TD.AperFunction*%
%TD*%
%TA.AperFunction,Conductor*%
%TO.N,CS3*%
G36*
X172262434Y-100973350D02*
G01*
X172731648Y-101442564D01*
X172746000Y-101477212D01*
X172746000Y-102140784D01*
X172731648Y-102175432D01*
X172262434Y-102644646D01*
X172227786Y-102658998D01*
X171095000Y-102658998D01*
X171060352Y-102644646D01*
X171046000Y-102609998D01*
X171046000Y-101477212D01*
X171060352Y-101442564D01*
X171529566Y-100973350D01*
X171564214Y-100958998D01*
X172227786Y-100958998D01*
X172262434Y-100973350D01*
G37*
%TD.AperFunction*%
%TD*%
%TA.AperFunction,Conductor*%
%TO.N,SDA_3V3*%
G36*
X133485648Y-122754352D02*
G01*
X133500000Y-122789000D01*
X133500000Y-123143969D01*
X133485648Y-123178617D01*
X133338617Y-123325648D01*
X133303969Y-123340000D01*
X133096031Y-123340000D01*
X133061383Y-123325648D01*
X132810383Y-123074648D01*
X132796031Y-123040000D01*
X132810383Y-123005352D01*
X133061383Y-122754352D01*
X133096031Y-122740000D01*
X133451000Y-122740000D01*
X133485648Y-122754352D01*
G37*
%TD.AperFunction*%
%TD*%
%TA.AperFunction,Conductor*%
%TO.N,+3V3*%
G36*
X153564648Y-125990383D02*
G01*
X153815648Y-126241383D01*
X153830000Y-126276031D01*
X153830000Y-126483969D01*
X153815648Y-126518617D01*
X153668617Y-126665648D01*
X153633969Y-126680000D01*
X153426031Y-126680000D01*
X153391383Y-126665648D01*
X153244352Y-126518617D01*
X153230000Y-126483969D01*
X153230000Y-126276031D01*
X153244352Y-126241383D01*
X153495352Y-125990383D01*
X153530000Y-125976031D01*
X153564648Y-125990383D01*
G37*
%TD.AperFunction*%
%TD*%
%TA.AperFunction,Conductor*%
%TO.N,VDDA*%
G36*
X153499111Y-111018850D02*
G01*
X153645648Y-111165387D01*
X153660000Y-111200035D01*
X153660000Y-111407973D01*
X153645648Y-111442621D01*
X153498617Y-111589652D01*
X153463969Y-111604004D01*
X153256031Y-111604004D01*
X153221383Y-111589652D01*
X152970383Y-111338652D01*
X152956031Y-111304004D01*
X152970383Y-111269356D01*
X153220889Y-111018850D01*
X153255537Y-111004498D01*
X153464463Y-111004498D01*
X153499111Y-111018850D01*
G37*
%TD.AperFunction*%
%TD*%
%TA.AperFunction,Conductor*%
%TO.N,SCL*%
G36*
X157354648Y-127640383D02*
G01*
X157605648Y-127891383D01*
X157620000Y-127926031D01*
X157620000Y-128133969D01*
X157605648Y-128168617D01*
X157458617Y-128315648D01*
X157423969Y-128330000D01*
X157216031Y-128330000D01*
X157181383Y-128315648D01*
X157034352Y-128168617D01*
X157020000Y-128133969D01*
X157020000Y-127926031D01*
X157034352Y-127891383D01*
X157285352Y-127640383D01*
X157320000Y-127626031D01*
X157354648Y-127640383D01*
G37*
%TD.AperFunction*%
%TD*%
%TA.AperFunction,Conductor*%
%TO.N,GNDA*%
G36*
X135315648Y-124054352D02*
G01*
X135330000Y-124089000D01*
X135330000Y-124443969D01*
X135315648Y-124478617D01*
X135168617Y-124625648D01*
X135133969Y-124640000D01*
X134926031Y-124640000D01*
X134891383Y-124625648D01*
X134744352Y-124478617D01*
X134730000Y-124443969D01*
X134730000Y-124236031D01*
X134744352Y-124201383D01*
X134891383Y-124054352D01*
X134926031Y-124040000D01*
X135281000Y-124040000D01*
X135315648Y-124054352D01*
G37*
%TD.AperFunction*%
%TD*%
%TA.AperFunction,Conductor*%
%TO.N,SCL*%
G36*
X157468617Y-122304352D02*
G01*
X157615648Y-122451383D01*
X157630000Y-122486031D01*
X157630000Y-122693969D01*
X157615648Y-122728617D01*
X157364648Y-122979617D01*
X157330000Y-122993969D01*
X157295352Y-122979617D01*
X157044352Y-122728617D01*
X157030000Y-122693969D01*
X157030000Y-122486031D01*
X157044352Y-122451383D01*
X157191383Y-122304352D01*
X157226031Y-122290000D01*
X157433969Y-122290000D01*
X157468617Y-122304352D01*
G37*
%TD.AperFunction*%
%TD*%
%TA.AperFunction,Conductor*%
%TO.N,INT*%
G36*
X172262434Y-108593350D02*
G01*
X172731648Y-109062564D01*
X172746000Y-109097212D01*
X172746000Y-109760784D01*
X172731648Y-109795432D01*
X172262434Y-110264646D01*
X172227786Y-110278998D01*
X171095000Y-110278998D01*
X171060352Y-110264646D01*
X171046000Y-110229998D01*
X171046000Y-109097212D01*
X171060352Y-109062564D01*
X171529566Y-108593350D01*
X171564214Y-108578998D01*
X172227786Y-108578998D01*
X172262434Y-108593350D01*
G37*
%TD.AperFunction*%
%TD*%
%TA.AperFunction,Conductor*%
%TO.N,GND*%
G36*
X172262434Y-98433350D02*
G01*
X172731648Y-98902564D01*
X172746000Y-98937212D01*
X172746000Y-99600784D01*
X172731648Y-99635432D01*
X172262434Y-100104646D01*
X172227786Y-100118998D01*
X171564214Y-100118998D01*
X171529566Y-100104646D01*
X170728566Y-99303646D01*
X170714214Y-99268998D01*
X170728566Y-99234350D01*
X171529566Y-98433350D01*
X171564214Y-98418998D01*
X172227786Y-98418998D01*
X172262434Y-98433350D01*
G37*
%TD.AperFunction*%
%TD*%
%TA.AperFunction,Conductor*%
%TO.N,SDA_3V3*%
G36*
X134988617Y-104104352D02*
G01*
X135135648Y-104251383D01*
X135150000Y-104286031D01*
X135150000Y-104493969D01*
X135135648Y-104528617D01*
X134988617Y-104675648D01*
X134953969Y-104690000D01*
X134746031Y-104690000D01*
X134711383Y-104675648D01*
X134564352Y-104528617D01*
X134550000Y-104493969D01*
X134550000Y-104139000D01*
X134564352Y-104104352D01*
X134599000Y-104090000D01*
X134953969Y-104090000D01*
X134988617Y-104104352D01*
G37*
%TD.AperFunction*%
%TD*%
%TA.AperFunction,Conductor*%
%TO.N,EN*%
G36*
X113086434Y-106078350D02*
G01*
X113555648Y-106547564D01*
X113570000Y-106582212D01*
X113570000Y-107714998D01*
X113555648Y-107749646D01*
X113521000Y-107763998D01*
X112388214Y-107763998D01*
X112353566Y-107749646D01*
X111884352Y-107280432D01*
X111870000Y-107245784D01*
X111870000Y-106582212D01*
X111884352Y-106547564D01*
X112353566Y-106078350D01*
X112388214Y-106063998D01*
X113051786Y-106063998D01*
X113086434Y-106078350D01*
G37*
%TD.AperFunction*%
%TD*%
%TA.AperFunction,Conductor*%
%TO.N,CS2*%
G36*
X113086434Y-103538350D02*
G01*
X113555648Y-104007564D01*
X113570000Y-104042212D01*
X113570000Y-105174998D01*
X113555648Y-105209646D01*
X113521000Y-105223998D01*
X112388214Y-105223998D01*
X112353566Y-105209646D01*
X111884352Y-104740432D01*
X111870000Y-104705784D01*
X111870000Y-104042212D01*
X111884352Y-104007564D01*
X112353566Y-103538350D01*
X112388214Y-103523998D01*
X113051786Y-103523998D01*
X113086434Y-103538350D01*
G37*
%TD.AperFunction*%
%TD*%
%TA.AperFunction,Conductor*%
%TO.N,VDDA*%
G36*
X134116028Y-127014352D02*
G01*
X134130380Y-127049000D01*
X134130380Y-127403969D01*
X134116028Y-127438617D01*
X133968997Y-127585648D01*
X133934349Y-127600000D01*
X133726411Y-127600000D01*
X133691763Y-127585648D01*
X133544732Y-127438617D01*
X133530380Y-127403969D01*
X133530380Y-127196031D01*
X133544732Y-127161383D01*
X133691763Y-127014352D01*
X133726411Y-127000000D01*
X134081380Y-127000000D01*
X134116028Y-127014352D01*
G37*
%TD.AperFunction*%
%TD*%
%TA.AperFunction,Conductor*%
%TO.N,GNDA*%
G36*
X152638617Y-100634352D02*
G01*
X152785648Y-100781383D01*
X152800000Y-100816031D01*
X152800000Y-101023969D01*
X152785648Y-101058617D01*
X152638617Y-101205648D01*
X152603969Y-101220000D01*
X152396031Y-101220000D01*
X152361383Y-101205648D01*
X152110383Y-100954648D01*
X152096031Y-100920000D01*
X152110383Y-100885352D01*
X152361383Y-100634352D01*
X152396031Y-100620000D01*
X152603969Y-100620000D01*
X152638617Y-100634352D01*
G37*
%TD.AperFunction*%
%TD*%
%TA.AperFunction,Conductor*%
%TO.N,SCL_3V3*%
G36*
X134095648Y-124004352D02*
G01*
X134110000Y-124039000D01*
X134110000Y-124393969D01*
X134095648Y-124428617D01*
X133948617Y-124575648D01*
X133913969Y-124590000D01*
X133706031Y-124590000D01*
X133671383Y-124575648D01*
X133524352Y-124428617D01*
X133510000Y-124393969D01*
X133510000Y-124186031D01*
X133524352Y-124151383D01*
X133671383Y-124004352D01*
X133706031Y-123990000D01*
X134061000Y-123990000D01*
X134095648Y-124004352D01*
G37*
%TD.AperFunction*%
%TD*%
%TA.AperFunction,Conductor*%
%TO.N,GND*%
G36*
X116095648Y-98458350D02*
G01*
X116110000Y-98492998D01*
X116110000Y-99625784D01*
X116095648Y-99660432D01*
X115626434Y-100129646D01*
X115591786Y-100143998D01*
X114928214Y-100143998D01*
X114893566Y-100129646D01*
X114092566Y-99328646D01*
X114078214Y-99293998D01*
X114092566Y-99259350D01*
X114893566Y-98458350D01*
X114928214Y-98443998D01*
X116061000Y-98443998D01*
X116095648Y-98458350D01*
G37*
%TD.AperFunction*%
%TD*%
%TA.AperFunction,Conductor*%
%TO.N,GND*%
G36*
X160288617Y-102404352D02*
G01*
X160435648Y-102551383D01*
X160450000Y-102586031D01*
X160450000Y-102793969D01*
X160435648Y-102828617D01*
X160288617Y-102975648D01*
X160253969Y-102990000D01*
X160046031Y-102990000D01*
X160011383Y-102975648D01*
X159864352Y-102828617D01*
X159850000Y-102793969D01*
X159850000Y-102439000D01*
X159864352Y-102404352D01*
X159899000Y-102390000D01*
X160253969Y-102390000D01*
X160288617Y-102404352D01*
G37*
%TD.AperFunction*%
%TD*%
%TA.AperFunction,Conductor*%
%TO.N,SDA_3V3*%
G36*
X134988617Y-104104352D02*
G01*
X135135648Y-104251383D01*
X135150000Y-104286031D01*
X135150000Y-104493969D01*
X135135648Y-104528617D01*
X134988617Y-104675648D01*
X134953969Y-104690000D01*
X134746031Y-104690000D01*
X134711383Y-104675648D01*
X134564352Y-104528617D01*
X134550000Y-104493969D01*
X134550000Y-104139000D01*
X134564352Y-104104352D01*
X134599000Y-104090000D01*
X134953969Y-104090000D01*
X134988617Y-104104352D01*
G37*
%TD.AperFunction*%
%TD*%
%TA.AperFunction,Conductor*%
%TO.N,GNDA*%
G36*
X142189117Y-111018850D02*
G01*
X142335648Y-111165381D01*
X142350000Y-111200029D01*
X142350000Y-111407967D01*
X142335648Y-111442615D01*
X142084648Y-111693615D01*
X142050000Y-111707967D01*
X142015352Y-111693615D01*
X141764352Y-111442615D01*
X141750000Y-111407967D01*
X141750000Y-111200029D01*
X141764352Y-111165381D01*
X141910883Y-111018850D01*
X141945531Y-111004498D01*
X142154469Y-111004498D01*
X142189117Y-111018850D01*
G37*
%TD.AperFunction*%
%TD*%
%TA.AperFunction,Conductor*%
%TO.N,SCL*%
G36*
X157468617Y-122304352D02*
G01*
X157615648Y-122451383D01*
X157630000Y-122486031D01*
X157630000Y-122693969D01*
X157615648Y-122728617D01*
X157364648Y-122979617D01*
X157330000Y-122993969D01*
X157295352Y-122979617D01*
X157044352Y-122728617D01*
X157030000Y-122693969D01*
X157030000Y-122486031D01*
X157044352Y-122451383D01*
X157191383Y-122304352D01*
X157226031Y-122290000D01*
X157433969Y-122290000D01*
X157468617Y-122304352D01*
G37*
%TD.AperFunction*%
%TD*%
%TA.AperFunction,Conductor*%
%TO.N,SCL*%
G36*
X157354648Y-127640383D02*
G01*
X157605648Y-127891383D01*
X157620000Y-127926031D01*
X157620000Y-128133969D01*
X157605648Y-128168617D01*
X157458617Y-128315648D01*
X157423969Y-128330000D01*
X157216031Y-128330000D01*
X157181383Y-128315648D01*
X157034352Y-128168617D01*
X157020000Y-128133969D01*
X157020000Y-127926031D01*
X157034352Y-127891383D01*
X157285352Y-127640383D01*
X157320000Y-127626031D01*
X157354648Y-127640383D01*
G37*
%TD.AperFunction*%
%TD*%
%TA.AperFunction,Conductor*%
%TO.N,SDA_3V3*%
G36*
X129140648Y-123879352D02*
G01*
X129155000Y-123914000D01*
X129155000Y-124268969D01*
X129140648Y-124303617D01*
X128993617Y-124450648D01*
X128958969Y-124465000D01*
X128751031Y-124465000D01*
X128716383Y-124450648D01*
X128569352Y-124303617D01*
X128555000Y-124268969D01*
X128555000Y-124061031D01*
X128569352Y-124026383D01*
X128716383Y-123879352D01*
X128751031Y-123865000D01*
X129106000Y-123865000D01*
X129140648Y-123879352D01*
G37*
%TD.AperFunction*%
%TD*%
%TA.AperFunction,Conductor*%
%TO.N,SCL_3V3*%
G36*
X134538617Y-120504352D02*
G01*
X134685648Y-120651383D01*
X134700000Y-120686031D01*
X134700000Y-120893969D01*
X134685648Y-120928617D01*
X134434648Y-121179617D01*
X134400000Y-121193969D01*
X134365352Y-121179617D01*
X134119571Y-120933836D01*
X134105219Y-120899188D01*
X134105456Y-120894372D01*
X134105496Y-120893969D01*
X134105497Y-120893966D01*
X134105497Y-120832757D01*
X134104973Y-120818091D01*
X134104973Y-120818083D01*
X134104474Y-120811111D01*
X134104335Y-120809822D01*
X134104550Y-120797598D01*
X134105644Y-120789997D01*
X134104550Y-120782395D01*
X134104334Y-120770181D01*
X134104474Y-120768882D01*
X134104973Y-120761909D01*
X134105497Y-120747241D01*
X134105497Y-120686028D01*
X134105496Y-120686025D01*
X134105456Y-120685615D01*
X134105497Y-120685479D01*
X134105497Y-120683621D01*
X134106061Y-120683621D01*
X134116341Y-120649727D01*
X134119562Y-120646172D01*
X134261383Y-120504352D01*
X134296031Y-120490000D01*
X134503969Y-120490000D01*
X134538617Y-120504352D01*
G37*
%TD.AperFunction*%
%TD*%
%TA.AperFunction,Conductor*%
%TO.N,SCL_3V3*%
G36*
X129979385Y-100494852D02*
G01*
X130085637Y-100601104D01*
X130099989Y-100635752D01*
X130099989Y-100990721D01*
X130085637Y-101025369D01*
X130050989Y-101039721D01*
X129696020Y-101039721D01*
X129661372Y-101025369D01*
X129514341Y-100878338D01*
X129499989Y-100843690D01*
X129499989Y-100635752D01*
X129514341Y-100601104D01*
X129620593Y-100494852D01*
X129655241Y-100480500D01*
X129944737Y-100480500D01*
X129979385Y-100494852D01*
G37*
%TD.AperFunction*%
%TD*%
%TA.AperFunction,Conductor*%
%TO.N,SCL_3V3*%
G36*
X134988617Y-103204352D02*
G01*
X135135648Y-103351383D01*
X135150000Y-103386031D01*
X135150000Y-103593969D01*
X135135648Y-103628617D01*
X134988617Y-103775648D01*
X134953969Y-103790000D01*
X134746031Y-103790000D01*
X134711383Y-103775648D01*
X134564352Y-103628617D01*
X134550000Y-103593969D01*
X134550000Y-103239000D01*
X134564352Y-103204352D01*
X134599000Y-103190000D01*
X134953969Y-103190000D01*
X134988617Y-103204352D01*
G37*
%TD.AperFunction*%
%TD*%
%TA.AperFunction,Conductor*%
%TO.N,GND*%
G36*
X160288617Y-102404352D02*
G01*
X160435648Y-102551383D01*
X160450000Y-102586031D01*
X160450000Y-102793969D01*
X160435648Y-102828617D01*
X160288617Y-102975648D01*
X160253969Y-102990000D01*
X160046031Y-102990000D01*
X160011383Y-102975648D01*
X159864352Y-102828617D01*
X159850000Y-102793969D01*
X159850000Y-102439000D01*
X159864352Y-102404352D01*
X159899000Y-102390000D01*
X160253969Y-102390000D01*
X160288617Y-102404352D01*
G37*
%TD.AperFunction*%
%TD*%
%TA.AperFunction,Conductor*%
%TO.N,SDA*%
G36*
X170191648Y-100973350D02*
G01*
X170206000Y-101007998D01*
X170206000Y-102140784D01*
X170191648Y-102175432D01*
X169722934Y-102644146D01*
X169688286Y-102658498D01*
X169023714Y-102658498D01*
X168989066Y-102644146D01*
X168520352Y-102175432D01*
X168506000Y-102140784D01*
X168506000Y-101007998D01*
X168520352Y-100973350D01*
X168555000Y-100958998D01*
X170157000Y-100958998D01*
X170191648Y-100973350D01*
G37*
%TD.AperFunction*%
%TD*%
%TA.AperFunction,Conductor*%
%TO.N,CS2*%
G36*
X172262434Y-103513350D02*
G01*
X172731648Y-103982564D01*
X172746000Y-104017212D01*
X172746000Y-104680784D01*
X172731648Y-104715432D01*
X172262434Y-105184646D01*
X172227786Y-105198998D01*
X171095000Y-105198998D01*
X171060352Y-105184646D01*
X171046000Y-105149998D01*
X171046000Y-104017212D01*
X171060352Y-103982564D01*
X171529566Y-103513350D01*
X171564214Y-103498998D01*
X172227786Y-103498998D01*
X172262434Y-103513350D01*
G37*
%TD.AperFunction*%
%TD*%
%TA.AperFunction,Conductor*%
%TO.N,+3V3*%
G36*
X153648617Y-121374352D02*
G01*
X153795648Y-121521383D01*
X153810000Y-121556031D01*
X153810000Y-121763969D01*
X153795648Y-121798617D01*
X153544648Y-122049617D01*
X153510000Y-122063969D01*
X153475352Y-122049617D01*
X153224352Y-121798617D01*
X153210000Y-121763969D01*
X153210000Y-121556031D01*
X153224352Y-121521383D01*
X153371383Y-121374352D01*
X153406031Y-121360000D01*
X153613969Y-121360000D01*
X153648617Y-121374352D01*
G37*
%TD.AperFunction*%
%TD*%
%TA.AperFunction,Conductor*%
%TO.N,SDA_3V3*%
G36*
X133738614Y-120504349D02*
G01*
X133885645Y-120651380D01*
X133899997Y-120686028D01*
X133899997Y-120747241D01*
X133899498Y-120754214D01*
X133894353Y-120789998D01*
X133894353Y-120790001D01*
X133899498Y-120825783D01*
X133899997Y-120832757D01*
X133899997Y-120893966D01*
X133885645Y-120928614D01*
X133634645Y-121179614D01*
X133599997Y-121193966D01*
X133565349Y-121179614D01*
X133314349Y-120928614D01*
X133299997Y-120893966D01*
X133299997Y-120686028D01*
X133314349Y-120651380D01*
X133461380Y-120504349D01*
X133496028Y-120489997D01*
X133703966Y-120489997D01*
X133738614Y-120504349D01*
G37*
%TD.AperFunction*%
%TD*%
M02*
